<?xml version="1.0" encoding="utf-8"?>
<!-- Generator: Adobe Illustrator 23.0.5, SVG Export Plug-In . SVG Version: 6.00 Build 0)  -->
<svg version="1.1" id="Layer_1" xmlns="http://www.w3.org/2000/svg" xmlns:xlink="http://www.w3.org/1999/xlink" x="0px" y="0px"
	 viewBox="0 0 500 500" style="enable-background:new 0 0 500 500;" xml:space="preserve">
<g>
	<g>
		<g>
			<path d="M91.8,286.1c0,45.5,0,91,0,136.6c0,6.4,0,12.9,0,19.3c0,10.8,9.2,20,20,20c31.2,0,62.3,0,93.5,0c49.6,0,99.3,0,148.9,0
				c11.3,0,22.7,0,34,0c10.8,0,20-9.2,20-20c0-45.5,0-91,0-136.6c0-6.4,0-12.9,0-19.3c0-10.5-9.2-20.5-20-20s-20,8.8-20,20
				c0,45.5,0,91,0,136.6c0,6.4,0,12.9,0,19.3c6.7-6.7,13.3-13.3,20-20c-31.2,0-62.3,0-93.5,0c-49.6,0-99.3,0-148.9,0
				c-11.3,0-22.7,0-34,0c6.7,6.7,13.3,13.3,20,20c0-45.5,0-91,0-136.6c0-6.4,0-12.9,0-19.3c0-10.5-9.2-20.5-20-20
				C101,266.6,91.8,274.9,91.8,286.1L91.8,286.1z"/>
		</g>
	</g>
	<g>
		<g>
			<path d="M68,271.3c21.8-22.5,43.6-45,65.4-67.4c34.8-35.8,69.5-71.7,104.3-107.5c8-8.3,16-16.5,24-24.8c-9.4,0-18.9,0-28.3,0
				c22.4,22.5,44.7,45,67.1,67.5c35.6,35.9,71.3,71.7,106.9,107.6c8.2,8.2,16.4,16.5,24.6,24.7c7.4,7.4,21,7.9,28.3,0
				c7.3-8,7.9-20.4,0-28.3c-22.4-22.5-44.7-45-67.1-67.5c-35.6-35.9-71.3-71.7-106.9-107.6c-8.2-8.2-16.4-16.5-24.6-24.7
				c-7.5-7.6-20.8-7.8-28.3,0c-21.8,22.5-43.6,45-65.4,67.4c-34.8,35.8-69.5,71.7-104.3,107.5c-8,8.3-16,16.5-24,24.8
				c-7.3,7.5-8,20.9,0,28.3C47.6,278.5,60.2,279.3,68,271.3L68,271.3z"/>
		</g>
	</g>
</g>
</svg>
