<?xml version="1.0" encoding="utf-8"?>
<!-- Generator: Adobe Illustrator 23.0.5, SVG Export Plug-In . SVG Version: 6.00 Build 0)  -->
<svg version="1.1" id="Layer_1" xmlns="http://www.w3.org/2000/svg" xmlns:xlink="http://www.w3.org/1999/xlink" x="0px" y="0px"
	 viewBox="0 0 24 24" style="enable-background:new 0 0 24 24;" xml:space="preserve">
<title>icon/hospital</title>
<desc>Created with Sketch.</desc>
<g>
	<path d="M9,20v-3.5C9,16.2,9.2,16,9.5,16h4c0.3,0,0.5,0.2,0.5,0.5V20h2V6H7v14H9z M3,20V9.5C3,9.2,3.2,9,3.5,9H6V5.5
		C6,5.2,6.2,5,6.5,5H8V3.5C8,3.2,8.2,3,8.5,3h6C14.8,3,15,3.2,15,3.5V5h1.5C16.8,5,17,5.2,17,5.5V9h2.5C19.8,9,20,9.2,20,9.5V20h1.5
		c0.3,0,0.5,0.2,0.5,0.5S21.8,21,21.5,21h-20C1.2,21,1,20.8,1,20.5S1.2,20,1.5,20H3z M17,20h2V10h-2V20z M4,20h2V10H4V20z M9,5h5V4
		H9V5z M13,9h1.5C14.8,9,15,9.2,15,9.5v2c0,0.3-0.2,0.5-0.5,0.5H13v1.5c0,0.3-0.2,0.5-0.5,0.5h-2c-0.3,0-0.5-0.2-0.5-0.5V12H8.5
		C8.2,12,8,11.8,8,11.5v-2C8,9.2,8.2,9,8.5,9H10V7.5C10,7.2,10.2,7,10.5,7h2C12.8,7,13,7.2,13,7.5V9z M14,10h-1.5
		C12.2,10,12,9.8,12,9.5V8h-1v1.5c0,0.3-0.2,0.5-0.5,0.5H9v1h1.5c0.3,0,0.5,0.2,0.5,0.5V13h1v-1.5c0-0.3,0.2-0.5,0.5-0.5H14V10z
		 M10,20h3v-3h-3V20z"/>
</g>
</svg>
