<svg width="31" height="31" viewBox="0 0 31 31" fill="none" xmlns="http://www.w3.org/2000/svg">
<path d="M21.948 16.9454C23.684 15.2094 24.5946 12.9347 24.5946 10.4974C24.5946 8.05999 23.6453 5.78537 21.948 4.04937C20.212 2.31337 17.9374 1.40662 15.5 1.40662C13.0626 1.40662 10.788 2.35599 9.05202 4.05324C7.31602 5.78924 6.4054 8.06387 6.4054 10.5012C6.4054 12.9386 7.35477 15.2132 9.05202 16.9492C10.292 18.1892 10.9934 19.8439 10.9934 21.6186C10.9934 22.32 11.532 22.8586 12.2334 22.8586H18.724C19.0534 22.8586 19.3866 22.7346 19.592 22.4866C19.84 22.2386 19.964 21.948 19.964 21.6186C20.0066 19.8826 20.6654 18.228 21.948 16.9454ZM20.1694 15.2094C18.7628 16.616 17.856 18.4334 17.608 20.4174H16.988L18.5574 12.8534C18.6814 12.1907 18.2668 11.532 17.608 11.3654C16.9454 11.2414 16.2866 11.656 16.12 12.3147L15.4186 15.7054L14.632 12.276C14.4654 11.6134 13.8066 11.2026 13.144 11.3654C12.4814 11.5281 12.0706 12.1907 12.2334 12.8534L13.9694 20.3747H13.392C13.144 18.4334 12.2334 16.6121 10.8306 15.1667C9.59064 13.9267 8.88927 12.2721 8.88927 10.4974C8.88927 8.72262 9.59064 7.06799 10.8306 5.82799C12.0706 4.58799 13.7253 3.88662 15.5 3.88662C17.2748 3.88662 18.9294 4.58799 20.1694 5.82799C21.4094 7.06799 22.1108 8.72262 22.1108 10.4974C22.1146 12.3186 21.4094 13.9694 20.1694 15.2094Z" fill="white"/>
<path d="M20.2546 24.8C20.2546 24.0986 19.716 23.56 19.0146 23.56H11.9854C11.284 23.56 10.7454 24.0986 10.7454 24.8C10.7454 25.5014 11.284 26.04 11.9854 26.04H19.0107C19.716 26.04 20.2546 25.4626 20.2546 24.8Z" fill="white"/>
<path d="M17.98 26.66H12.8146C12.1132 26.66 11.5746 27.1986 11.5746 27.9C11.5746 28.6014 12.1132 29.14 12.8146 29.14H17.98C18.6813 29.14 19.22 28.6014 19.22 27.9C19.22 27.1986 18.6813 26.66 17.98 26.66Z" fill="white"/>
</svg>
