<?xml version="1.0" encoding="utf-8"?>
<!-- Generator: Adobe Illustrator 23.0.5, SVG Export Plug-In . SVG Version: 6.00 Build 0)  -->
<svg version="1.1" id="Layer_1" xmlns="http://www.w3.org/2000/svg" xmlns:xlink="http://www.w3.org/1999/xlink" x="0px" y="0px"
	 viewBox="0 0 32 32" style="enable-background:new 0 0 32 32;" xml:space="preserve">
<style type="text/css">
	.st0{fill-rule:evenodd;clip-rule:evenodd;}
</style>
<title>user-icon@1x</title>
<desc>Created with Sketch.</desc>
<g>
	<g transform="translate(-380.000000, -1646.000000)">
		<g transform="translate(0.000000, 1519.000000)">
			<g transform="translate(380.000000, 127.371429)">
				<path class="st0" d="M8.8,19c0.6,0,1.1,0.5,1.1,1.2c0,0.4-0.2,0.8-0.5,1c-2.7,1.9-4.5,4.9-4.8,8.4c0,0,0,0,0,0
					c0,0.6-0.5,1.2-1.1,1.2c-0.6,0-1.1-0.5-1.1-1.2l0,0c0.3-4.3,2.6-8,5.8-10.3C8.3,19.1,8.5,19,8.8,19 M29.7,29.5l0,0.2
					C29.7,29.7,29.7,29.6,29.7,29.5c0,0.7-0.5,1.2-1.1,1.2c-0.6,0-1.1-0.5-1.1-1.2h0C26.8,23.7,21.9,19,16,19l0,0c0,0,0,0,0,0
					c-5,0-9.1-4.1-9.1-9.2s4.1-9.2,9.1-9.2c0,0,0,0,0,0c0,0,0,0,0,0c5,0,9.1,4.1,9.1,9.2c0,1.9-0.6,3.7-1.6,5.1c0,0,0,0,0,0
					c-0.1,0.2-0.3,0.4-0.5,0.6c-0.1,0.1-0.1,0.1-0.2,0.2c-0.1,0.2-0.3,0.3-0.4,0.5c-0.1,0.1-0.2,0.2-0.4,0.3
					c-0.2,0.2-0.4,0.3-0.6,0.5c-0.2,0.1-0.4,0.3-0.6,0.4c0,0-0.1,0.1-0.1,0.1c4.8,1.8,8.3,6.3,8.8,11.7
					C29.7,29.4,29.7,29.5,29.7,29.5 M16,16.7c0.2,0,0.5,0,0.7,0c3.4-0.4,6.1-3.3,6.1-6.9c0-3.8-3-6.9-6.8-6.9c-0.2,0-0.5,0-0.7,0
					c-3.4,0.4-6.1,3.3-6.1,6.9C9.2,13.6,12.2,16.7,16,16.7"/>
			</g>
		</g>
	</g>
</g>
</svg>
