<svg width="27" height="27" viewBox="0 0 27 27" fill="none" xmlns="http://www.w3.org/2000/svg">
<path d="M13.5 14.0625C16.9116 14.0625 19.6875 11.2866 19.6875 7.875V6.75C19.6875 3.33844 16.9116 0.5625 13.5 0.5625C10.0884 0.5625 7.3125 3.33844 7.3125 6.75V7.875C7.3125 11.2866 10.0884 14.0625 13.5 14.0625Z" fill="white"/>
<path d="M22.0939 17.5416C20.2084 16.9807 17.1866 16.3125 13.5 16.3125C9.81338 16.3125 6.79163 16.9807 4.90613 17.5416C2.98125 18.1142 1.6875 19.8484 1.6875 21.8565V25.875C1.6875 26.1855 1.9395 26.4375 2.25 26.4375H24.75C25.0605 26.4375 25.3125 26.1855 25.3125 25.875V21.8565C25.3125 19.8484 24.0187 18.1142 22.0939 17.5416Z" fill="white"/>
</svg>
