<?xml version="1.0" encoding="utf-8"?>
<!-- Generator: Adobe Illustrator 23.0.5, SVG Export Plug-In . SVG Version: 6.00 Build 0)  -->
<svg version="1.1" id="Layer_1" xmlns="http://www.w3.org/2000/svg" xmlns:xlink="http://www.w3.org/1999/xlink" x="0px" y="0px"
	 viewBox="0 0 100 100" style="enable-background:new 0 0 100 100;" xml:space="preserve">
<title>Noun_Project_100Icon_1px_grid_simplify_exp</title>
<g>
	<path d="M83.2,74.8L83.2,74.8c0.4-0.6,0.8-1.1,1.1-1.6l0,0c3.4-5.1,5.7-10.8,6.6-16.8v-0.1c0.1-0.6,0.2-1.2,0.2-1.8V54
		c0-0.5,0.1-1,0.1-1.5c0-0.2,0-0.3,0-0.5c0-0.7,0.1-1.3,0.1-2s0-1.5-0.1-2.3c0-0.3,0-0.6-0.1-0.9s-0.1-0.9-0.1-1.3s-0.1-0.8-0.2-1.2
		s-0.1-0.7-0.2-1s-0.1-0.8-0.2-1.3s-0.1-0.6-0.2-0.9s-0.2-0.9-0.3-1.3S90,39.3,89.9,39c-0.2-0.6-0.3-1.2-0.5-1.7s-0.3-1-0.5-1.5
		c-0.1-0.3-0.2-0.6-0.3-0.9S88.2,34,88,33.6s-0.3-0.5-0.4-0.8c-0.2-0.4-0.4-0.9-0.6-1.3c-0.1-0.1-0.1-0.3-0.2-0.5L86.7,31
		c-1.9-3.7-4.4-7-7.3-10c0,0-0.1-0.1-0.1-0.1c-0.2-0.2-0.5-0.4-0.7-0.6c-0.4-0.4-0.8-0.7-1.2-1.1s-0.7-0.6-1-0.9
		c-0.6-0.5-1.2-1-1.8-1.4l-0.9-0.6c-0.6-0.4-1.2-0.8-1.8-1.2l-0.6-0.4c-0.8-0.5-1.6-0.9-2.4-1.4L68.7,13h-0.1
		c-2.8-1.4-5.7-2.5-8.7-3.2l0,0l-0.3-0.1c-0.7-0.2-1.3-0.3-2-0.4l-0.5-0.1c-0.6-0.1-1.2-0.2-1.8-0.3l-0.6-0.1
		c-0.6-0.1-1.2-0.1-1.8-0.2h-0.6c-0.8,0-1.6-0.1-2.4-0.1h-0.6c-2.3,0-4.6,0.3-6.9,0.7l0,0h-0.1c-0.6,0.1-1.2,0.2-1.8,0.4l-0.2,0.1
		c-0.6,0.1-1.2,0.3-1.8,0.5l-0.2,0.1c-0.7,0.2-1.3,0.4-1.9,0.6h-0.1c-4.6,1.6-8.9,4.1-12.7,7.2l-0.5,0.4c-0.4,0.3-0.7,0.6-1.1,0.9
		s-0.5,0.5-0.8,0.7l-0.7,0.7c-0.3,0.3-0.6,0.6-0.9,0.9l-0.5,0.6c-0.3,0.3-0.6,0.7-0.9,1l-0.5,0.5c-0.3,0.4-0.6,0.7-0.8,1.1l-0.4,0.5
		c-0.3,0.4-0.5,0.7-0.8,1.1l-0.4,0.6l-0.4,0.5c0,0,0,0.1-0.1,0.1C2.8,47.2,8.7,72.8,28.1,85c17.9,11.2,41.5,7.2,54.6-9.5l0.1-0.1
		L83.2,74.8z M88.5,51.8c0,0.2,0,0.3,0,0.5c0,0.5-0.1,1-0.1,1.4v0.4C87.6,61,85,67.5,80.9,73c-0.7,0.1-1.4,0-2.1-0.1
		c-1.1-0.4-2-1.4-2.3-2.6c0.7-1.4,0.8-4.6,0.8-8.7c0-1,1-1.9,2.8-3.2c0.9-0.7,1.8-1.4,2.6-2.2c0.7-0.6,1-1.5,0.8-2.4
		c-0.4-1.4-1.9-1.7-3.4-2c-0.5-0.1-1-0.2-1.5-0.4c0.1-1.3-0.3-2.6-1.1-3.6c-1.1-1.2-2.7-1.9-4.3-1.8c-0.8,0-2.3,0-2.6-3.8
		c-0.1-1.5-1-2.8-2.4-3.3c-0.8-0.3-1.4-0.9-1.5-1.8c-0.4-1.4,0.2-2,3.4-3.3l1.2-0.5c0.9-0.4,3.8-0.6,9.2-0.1l0,0
		c1.4,0.1,2.7,0.1,4.1,0h0.3l0,0c0.3,0.6,0.6,1.2,0.8,1.8c0.1,0.3,0.2,0.6,0.4,0.9s0.2,0.6,0.4,0.9s0.3,0.7,0.4,1.1s0.2,0.5,0.2,0.8
		c0.1,0.4,0.2,0.8,0.3,1.2l0.2,0.7c0.1,0.4,0.2,0.8,0.3,1.3c0,0.2,0.1,0.5,0.1,0.7c0.1,0.4,0.2,0.8,0.2,1.3c0,0.3,0.1,0.5,0.1,0.8
		s0.1,0.8,0.2,1.2s0.1,0.7,0.1,1.1s0.1,0.6,0.1,1c0,0.7,0.1,1.4,0.1,2.1S88.5,51.2,88.5,51.8L88.5,51.8z M64.8,18.4
		c0.9-1,2-1.8,3.2-2.4l0.2,0.1c0.4,0.2,0.8,0.5,1.2,0.7c0.6,0.3,1.1,0.7,1.6,1l0.5,0.3c0.4,0.3,0.8,0.6,1.2,0.9l0.4,0.3
		c0.4,0.3,0.8,0.7,1.2,1l0.2,0.2c0.3,0.2,0.6,0.5,0.9,0.8c-0.6,0.2-1.1,0.6-1.4,1.2c-0.6,0.9-1.6,1.6-2.7,1.6
		c-1.1,0-2.3,0.1-3.4,0.4c-0.9,0.2-1.8,0.3-2.7,0.2c-1.2-0.2-2.2-1-2.8-2C62.5,22.4,62.5,21.5,64.8,18.4L64.8,18.4z M50.6,11.5h0.8
		h0.7l1,0.1c1.3,0.1,2.5,0.3,3.8,0.5l0.4,0.1c-1.2,1.7-2.6,3.2-4.1,4.5c-0.5,0.4-0.7,0.4-0.8,0.4c-0.5-0.1-1.3-0.8-2-1.8
		C50.3,15.1,50.1,14,50.6,11.5z M42.4,20.5c1.8,2.1,2.5,4.4,2.2,4.9s-1.6,2.1-3.1,2.1c-0.7-0.1-1.4-0.3-2-0.7
		c-1.2-0.5-2.9-1.3-4,0.1c-0.4,0.7-0.6,1.5-0.6,2.4c0,0.7-0.2,1.4-0.4,2c-0.9,0-1.8,0-2.7-0.2c-2.7-0.3-6-0.8-6.8,1.8
		s1.3,4.6,2.3,5.5c0.1,0.1,0.2,0.2,0.3,0.3c1,1.2,3.4,2.6,7.3,2.6c1.1,0,2-0.1,2.7-0.1c1.9-0.2,2.2-0.1,2.8,0.7
		c0.4,0.8,0.6,1.8,0.6,2.7c0.1,1.5,0.3,3.9,2.6,4.2c1.3,0,2.6-0.3,3.8-0.9c1.4-0.6,3-1.2,4-0.8c2.4,1.1,4.3,3.3,4.1,4.6
		c-0.1,0.4-0.2,0.8-0.2,1.3c-0.2,2.1-0.5,3.4-2.5,4l0,0c-4.2,1.4-5.2,3.7-5.5,6.8c-0.3,2.1-1.6,3.8-3.5,4.7
		c-2.9,1.5-3.2,3.6-3.4,5.8v0.4c-0.1,1,0,2,0.2,3c0.1,0.3,0.1,0.6,0.1,0.8c-0.4,0-0.8-0.1-1.2-0.3c-0.4-0.2-0.7-0.5-0.8-0.9
		c-0.1-1.2-0.1-2.5-0.1-3.7c0-3.6,0-6-0.7-7.4c-0.4-1.1-0.7-2.2-0.9-3.3c-0.3-2-1-4-1.9-5.9c-0.9-1.2-2.1-2.2-3.4-3
		c-1.4-1-2.9-1.9-2.9-2.9c0-3.1,0-7.9-4.3-10.7c-3.4-2.3-6.9-4.6-6.9-9.6c0-0.6,0-1.2,0.1-1.8l0.2-0.4l0.3-0.5
		c0.3-0.4,0.5-0.7,0.8-1.1l0.3-0.4c0.3-0.4,0.5-0.7,0.8-1l0.4-0.4c0.3-0.3,0.5-0.6,0.8-1l0.4-0.5l0.8-0.8l0.5-0.5l0.7-0.7l0.7-0.6
		l0.6-0.6l0.8-0.7l0.5-0.4l1-0.7l0.4-0.3c0.4-0.3,0.8-0.5,1.1-0.8l0.3-0.2c0.4-0.3,0.8-0.5,1.3-0.8l0.3-0.2c0.4-0.3,0.9-0.5,1.4-0.7
		l0.2-0.1c0.5-0.2,1-0.5,1.4-0.7l0.2-0.1c0.5-0.2,1-0.4,1.5-0.6l0.2-0.1c0.5-0.2,1-0.4,1.5-0.6l0.3-0.1c0.5-0.2,1-0.3,1.5-0.5
		l0.3-0.1c0.5-0.1,1-0.3,1.5-0.4h0.1v0.1C41,13.1,40.4,18,42.4,20.5L42.4,20.5z M50,88.5c-21.3,0-38.5-17.2-38.5-38.4
		c0-5.6,1.2-11.1,3.5-16.1c1.2,4.5,4.8,6.9,7.9,9c2.9,1.9,2.9,5.4,2.9,8.2c0,2.5,2.2,4,4.2,5.4c1,0.5,1.8,1.3,2.5,2.1
		c0.7,1.6,1.2,3.3,1.5,5c0.2,1.4,0.6,2.8,1.2,4.1c0.4,0.7,0.3,4.1,0.3,5.9c-0.1,1.4,0,2.8,0.1,4.2c0.6,2.2,2.6,3.7,4.8,3.7
		c1,0,1.9-0.4,2.5-1.2c0.7-1,0.8-2.2,0.5-3.4c-0.2-0.7-0.2-1.3-0.2-2v-0.4c0.2-2.1,0.3-2.7,1.8-3.5c2.9-1.3,4.9-4,5.2-7.1
		c0.2-2.2,0.6-3.3,3.5-4.2l0,0c3.8-1.3,4.3-4.3,4.6-6.5c0.1-0.4,0.1-0.8,0.2-1.1c0.6-3.1-2.5-6.4-5.8-7.9c-2.1-1-4.5,0-6.3,0.7
		c-0.7,0.3-1.4,0.5-2.1,0.7c-0.1-0.4-0.1-0.9-0.2-1.3c0-1.5-0.4-3-1.1-4.3c-1.6-2.2-3.4-2.1-5.5-1.9c-0.7,0.1-1.5,0.1-2.5,0.1
		c-3.6,0-4.9-1.4-5-1.4c-0.2-0.2-0.4-0.4-0.6-0.6c-0.6-0.5-1.6-1.5-1.5-2.3c1.2-0.1,2.4,0,3.5,0.2c1.3,0.3,2.7,0.3,4,0
		c2.1-0.7,2.3-3,2.4-4.6v-0.2l0.3,0.1c1,0.5,2.1,0.9,3.2,0.9c2.3-0.1,4.4-1.4,5.6-3.4c2.1-3-1.8-8-2.3-8.5c-0.8-1-0.9-3.9-0.6-5.4
		c0.1-0.4,0.1-0.8,0.2-1.2c1.1-0.2,2.2-0.3,3.3-0.4c-0.7,3.8,0.1,4.9,0.4,5.4c1.3,1.9,2.6,2.9,4.1,3.1c0.2,0,0.3,0,0.5,0
		c1,0,2-0.4,2.7-1.1c2-1.8,3.8-3.8,5.2-6.1c1.5,0.4,3,0.9,4.4,1.5c-0.9,0.6-1.7,1.3-2.4,2.2l0,0c-2.2,2.9-3.5,5.3-2.8,7.1
		c1,2,2.9,3.5,5.2,3.9c0.3,0,0.6,0.1,0.9,0.1c0.9,0,1.8-0.1,2.7-0.3c0.9-0.2,1.9-0.3,2.9-0.3c2.2-0.1,4.2-1.2,5.3-3.1
		c0.4-0.2,0.9-0.3,1.3-0.4c2,2.1,3.7,4.4,5.2,6.9c-0.8,0-1.7,0-2.5,0l0,0c-5.4-0.5-9-0.4-10.7,0.3l-1.1,0.5c-2.5,1-6.3,2.5-5.2,6.8
		c0.4,1.7,1.5,3,3.1,3.7c0.7,0.3,0.7,0.4,0.8,0.9c0.4,5.4,3.3,6.5,5.6,6.5c0.7-0.1,1.5,0.2,2,0.7c0.4,0.5,0.5,1.1,0.4,1.6
		c-0.4,2.4,2.4,3,3.9,3.3l0.4,0.1c-0.5,0.4-1,0.8-1.6,1.3c-1.8,1.4-3.9,3-3.9,5.6c0,1.8,0,6.4-0.4,7.3c-0.4,1.1-0.4,2.3,0.2,3.3
		c0.8,1.7,2.2,3,4,3.5l0.4,0.1C71.2,83.9,60.8,88.5,50,88.5z"/>
</g>
</svg>
