<?xml version="1.0" encoding="utf-8"?>
<!-- Generator: Adobe Illustrator 24.2.0, SVG Export Plug-In . SVG Version: 6.00 Build 0)  -->
<svg version="1.1" id="Layer_1" xmlns="http://www.w3.org/2000/svg" xmlns:xlink="http://www.w3.org/1999/xlink" x="0px" y="0px"
	 viewBox="0 0 998.8 1000" style="enable-background:new 0 0 998.8 1000;" xml:space="preserve">
<g id="Layer_1_1_">
</g>
<g id="Layer_2_1_">
	<path d="M747.4,711.9c-0.6-20.4-0.8-39.4-2.2-58.4c-2.3-31-19.6-50.4-48.8-59.4c-3.4-1-6.9-1.9-10.3-2.9
		c-23.7-6.4-47.4-11.8-70.7-19.2c-11.2-3.6-22.1-9.7-31.9-16.3c-12.1-8.1-17.8-20.5-14.2-35.4c1.9-7.9,5.2-15.5,8.5-23
		c9.2-20.6,19.6-40.8,27.6-61.8c14.8-39.2,23.5-79.6,15.9-121.7c-7.9-43.1-31.4-73.8-73.1-89c-28.2-10.4-59-11.4-87.9-2.9
		c-39.6,11.3-65.5,37.1-78,76.4c-7.8,24.8-7.9,50.1-4.5,75.4c4.5,33.1,15.3,64.4,29.4,94.6c6.1,13,13.2,25.6,19,38.7
		c9.8,22.3,4.3,39.3-16,52.4c-3.8,2.7-7.9,4.8-12.2,6.6c-16.7,5.7-33.6,11.3-50.5,16.4c-18.3,5.5-37.4,9.2-55.3,15.5
		c-20.6,7.4-34.1,22.6-36.8,44.8c-2.4,20.4-2.3,41-3.7,61.4c-0.5,6.5,1.5,8.1,8,8.1c159.9-0.3,319.8-0.3,479.7-0.1L747.4,711.9z"/>
	<path d="M190.9,711.6c0.1-2.4,0.3-4.3,0.4-6.1c1.4-19.8,1.9-39.7,4.3-59.5c2.9-24.8,9.9-48.6,25.4-68.7c9-11.7,19.7-22,29.9-32.8
		c12.5-13.4,21.5-29.6,25.9-47.3c5.5-21.1,6-42.6,6.6-64.2c0.8-31.8-11.3-57.2-36.6-76.2c-22.9-17-49-19.2-76.2-14.6
		c-38.7,6.5-66.7,34.9-71.7,77.7c-2.9,24.9,0.5,49.2,8.6,72.4c7.5,21.2,17,41.8,26.3,62.3s5.3,35.2-14.9,45.4
		c-9.9,4.7-20.1,8.6-30.7,11.6c-17.2,5.1-34.7,8.8-51.8,14.2c-14.5,4.7-24.4,14.9-28.4,30c-4.8,18.3-2.9,36.9-3.2,55.7L190.9,711.6z
		"/>
	<path d="M993.7,711.8c0-13.2,0.4-25.7,0-38.2c-0.9-27.2-12.7-42.7-38.9-50.4c-13-3.8-26.1-6.7-39.2-10.3
		c-15.9-4.3-31.9-8.4-45.2-19.1c-9.4-7.6-13.2-17.6-9.2-29c3.6-10.3,8.8-20.1,13.4-30c16.8-36.9,29.9-74.7,24.8-116.1
		c-2.7-21.4-10.7-40.4-27-55.2c-25.4-22.9-55.8-27.3-87.8-21c-36.8,7.1-65.3,39.6-67.9,76.7c-1.3,17.7-0.3,35.6,1.3,53.2
		c2.3,26.2,10.3,50.5,28.9,70.2c7.1,7.5,14.4,14.9,21.6,22.4c13,13.5,22.6,29.8,28.2,47.6c9.7,30,11.4,60.9,11.7,92.1
		c0,2.3,0,4.6,0,7.1H993.7z"/>
</g>
</svg>
