<svg xmlns="http://www.w3.org/2000/svg" viewBox="0 0 30.55 29.64"><g id="Layer_2" data-name="Layer 2"><g id="Layer_1-2" data-name="Layer 1"><path d="M.84,15c-1.16.6-1.11,1.49.1,2l3.6,1.43a4.62,4.62,0,0,0,4.08-.59L24.22,5.51c1-.8,1.14-.68.25.27L12.13,19a1.49,1.49,0,0,0,.59,2.59l.42.16c1.22.47,3.2,1.26,4.41,1.75l4,1.63a2.07,2.07,0,0,0,2.85-1.35L30.46,1.44C30.8.18,30.14-.36,29,.25Z"/><path d="M10.7,29.63c-.07.21,2.46-3.67,2.46-3.67a1.89,1.89,0,0,0-.9-2.88L9.5,22c-1.21-.5-1.79.08-1.29,1.29C8.21,23.24,10.77,29.41,10.7,29.63Z"/></g></g></svg>