<svg xmlns="http://www.w3.org/2000/svg" viewBox="0 0 468 468"><g id="Layer_2" data-name="Layer 2"><g id="Layer_1-2" data-name="Layer 1"><path d="M181.88,164.63h13.77a16.1,16.1,0,0,1,16.1,16.1V271.8h44.34V180.73a16.1,16.1,0,0,1,16.1-16.1h15.1L236.16,95.3Z"/><path d="M234,0C104.76,0,0,104.76,0,234S104.76,468,234,468,468,363.23,468,234,363.23,0,234,0Zm38.27,415.4H195.73V383.2h76.54Zm13.53-55.7H182.2V327.5H285.8Zm33.37-162.87H288.29V286.7c0,12.69-9.63,17.3-16.1,17.3H195.65c-4.48,0-16.1-3.11-16.1-17.3V196.83H148.83c-14.8.32-17.88-17.93-12.68-26L222.88,60c2.17-7.79,21.14-8.51,26.62-.89l82.63,112C338.48,180.33,331,196.79,319.17,196.83Z"/></g></g></svg>