<svg xmlns="http://www.w3.org/2000/svg" viewBox="0 0 86.97 85.72"><g id="Layer_2" data-name="Layer 2"><g id="Layer_1-2" data-name="Layer 1"><path d="M16.6,60.8a7.31,7.31,0,1,0-7.3-7.31A7.31,7.31,0,0,0,16.6,60.8ZM87,64.72A10.48,10.48,0,0,0,76.49,54.25H46.91V75.48H82V85.72h5v-21Zm-63.06-1.5h20v-9H34.27A10.47,10.47,0,0,0,23.91,63.22ZM5,41.06H0V85.72H5V75.48H43.92V66.22H5ZM38.08,28.44l5.41,10.34,5.4-10.34a14.37,14.37,0,0,0,5-3.27,14.74,14.74,0,1,0-20.85,0A14.46,14.46,0,0,0,38.08,28.44ZM34.87,11.77h5.74V6h5.75v5.74H52.1v5.75H46.36v5.75H40.61V17.52H34.87Z"/></g></g></svg>