<svg xmlns="http://www.w3.org/2000/svg" viewBox="0 0 84 98.01"><g id="Layer_2" data-name="Layer 2"><g id="Layer_1-2" data-name="Layer 1"><path d="M42,0A67.47,67.47,0,0,0,21,3.19a3.13,3.13,0,0,0-2,3.58l3.58,14.35A38.2,38.2,0,0,0,18,37.84c.25,3.37.75,8.12,2.73,10.38a3,3,0,0,0,2.63,1A42,42,0,0,0,31,61.51L30.24,64c-6,2.37-12.86,3.36-18.28,4.67-5.74,1-8.18,5.85-9.42,10.63-.46,5.28-2,11-2.52,15.31A3.13,3.13,0,0,0,3,98H81a3.15,3.15,0,0,0,3-3.08,145.94,145.94,0,0,0-1.31-15.52c-1.14-4.65-3.55-7.69-6.45-9.11-7.69-2.66-15.81-4-22.57-6.31L53,61.62A40.61,40.61,0,0,0,60.68,49a3,3,0,0,0,2.45-.82A20.17,20.17,0,0,0,66,39.05c.49-6.06-1-13.93-4.47-18.89L64.9,6.77a3.15,3.15,0,0,0-2-3.58A84.79,84.79,0,0,0,42,0Zm0,6.09a63,63,0,0,1,16.3,2.17L55.83,18.39a46.75,46.75,0,0,0-27.71,0L25.64,8.26A64.14,64.14,0,0,1,42,6.09Zm-1,1v3H38v2h3v3h2v-3h3v-2H43v-3ZM50.9,32.31a42.26,42.26,0,0,1,3.55,5.39c1.38,2.66,1.94,5,1.16,7.62a32.91,32.91,0,0,1-6,11.2C47,59.49,44.17,61.05,42,61s-5-1.6-7.61-4.61a30.82,30.82,0,0,1-6.06-11.16c-.82-2.94-.46-3.58.24-4.25S31.2,39.51,34,38.83C38.68,37.7,45.41,36.6,50.9,32.31ZM36.09,65.48A13.28,13.28,0,0,0,42,67a12.27,12.27,0,0,0,5.84-1.49L49,69.48a8,8,0,0,1-7.12,4.36,7.66,7.66,0,0,1-6.95-4.28ZM48.53,77.92A99.77,99.77,0,0,1,42,88.37c-2.37-3.61-4.67-6.8-6.52-10.31a12.45,12.45,0,0,0,6.42,1.81A12.89,12.89,0,0,0,48.53,77.92Z"/></g></g></svg>