<svg width="68" height="87" viewBox="0 0 68 87" fill="none" xmlns="http://www.w3.org/2000/svg">
<path d="M51.2768 58.8643C52.7047 58.8643 53.8623 57.6385 53.8623 56.1264C53.8623 54.6143 52.7047 53.3885 51.2768 53.3885C49.8489 53.3885 48.6914 54.6143 48.6914 56.1264C48.6914 57.6385 49.8489 58.8643 51.2768 58.8643Z" fill="black"/>
<path d="M50.3299 39.9729C49.6404 40.703 48.8648 41.2506 48.0892 41.7981C49.8128 43.7147 52.0535 47.0001 52.5706 50.7419C54.8975 51.2894 56.6211 53.571 56.6211 56.1264C56.6211 59.2293 54.2942 61.6934 51.364 61.6934C48.4339 61.6934 46.107 59.2293 46.107 56.1264C46.107 53.6623 47.7444 51.472 49.899 50.8331C49.3819 47.7302 47.2273 44.9011 45.7623 43.3496C42.2288 45.3574 38.2645 46.4525 34.0416 46.4525C29.9911 46.4525 26.1129 45.3574 22.6657 43.5321C21.2006 45.905 18.8737 50.5593 18.529 56.1264C22.9242 56.8565 26.2853 60.872 26.2853 65.8002V72.2798C26.2853 73.1012 25.682 73.74 24.9064 73.74H20.6835C19.9079 73.74 19.3046 73.1012 19.3046 72.2798C19.3046 71.4584 19.9079 70.8196 20.6835 70.8196H23.6137V65.7089C23.6137 61.8759 20.6835 58.773 17.0639 58.773C13.4443 58.773 10.5141 61.8759 10.5141 65.7089V70.8196H13.4443C14.2199 70.8196 14.8232 71.4584 14.8232 72.2798C14.8232 73.1012 14.2199 73.74 13.4443 73.74H9.13522C8.35959 73.74 7.75632 73.1012 7.75632 72.2798V65.8002C7.75632 60.872 11.2036 56.7652 15.7712 56.1264C16.1159 49.8292 18.6152 44.8098 20.2526 42.0719C19.3046 41.4331 18.4428 40.7943 17.581 39.9729C7.41159 43.1671 0 53.1147 0 64.7963V81.1323C0 84.2352 2.32689 86.6993 5.25706 86.6993H62.74C65.6701 86.6993 67.997 84.2352 67.997 81.1323V64.7963C67.9109 53.0234 60.4993 43.0758 50.3299 39.9729ZM49.7266 75.1089C49.7266 75.5653 49.3819 75.9303 48.951 75.9303H45.5037V79.6721C45.5037 80.1284 45.159 80.4934 44.7281 80.4934H41.7117C41.2808 80.4934 40.9361 80.1284 40.9361 79.6721V75.9303H37.4889C37.058 75.9303 36.7132 75.5653 36.7132 75.1089V71.8235C36.7132 71.3672 37.058 71.0021 37.4889 71.0021H40.9361V67.2604C40.9361 66.8041 41.2808 66.439 41.7117 66.439H44.7281C45.159 66.439 45.5037 66.8041 45.5037 67.2604V71.0021H48.951C49.3819 71.0021 49.7266 71.3672 49.7266 71.8235V75.1089Z" fill="black"/>
<path d="M33.9562 40.338C44.4751 40.338 53.0023 31.308 53.0023 20.169C53.0023 9.02997 44.4751 0 33.9562 0C23.4374 0 14.9102 9.02997 14.9102 20.169C14.9102 31.308 23.4374 40.338 33.9562 40.338Z" fill="black"/>
</svg>
