<?xml version="1.0" encoding="utf-8"?>
<!-- Generator: Adobe Illustrator 23.0.5, SVG Export Plug-In . SVG Version: 6.00 Build 0)  -->
<svg version="1.1" id="Layer_1" xmlns="http://www.w3.org/2000/svg" xmlns:xlink="http://www.w3.org/1999/xlink" x="0px" y="0px"
	 viewBox="0 0 100 100" style="enable-background:new 0 0 100 100;" xml:space="preserve">
<style type="text/css">
	.st0{fill:#575D75;}
</style>
<g>
	<g>
		<path class="st0" d="M50,5C20,5,5,20.6,5,50c0,30.3,15,45,45,45c29.7,0,45-14.4,45-45C95,20.3,80,5,50,5z M50,90.5
			C22.4,90.5,9.5,77.6,9.5,50C9.5,22.7,22.7,9.5,50,9.5S90.5,22.7,90.5,50C90.5,77.6,77.6,90.5,50,90.5z"/>
	</g>
</g>
<g>
	<g>
		<path class="st0" d="M38.4,62.2L35.2,59l3.2-3.2c0.9-0.9,0.9-2.3,0-3.2s-2.3-0.9-3.2,0L32,55.8l-3.2-3.2c-0.9-0.9-2.3-0.9-3.2,0
			c-0.9,0.9-0.9,2.3,0,3.2l3.2,3.2l-3.2,3.2c-0.9,0.9-0.9,2.3,0,3.2s2.3,0.9,3.2,0l3.2-3.2l3.2,3.2c0.9,0.9,2.3,0.9,3.2,0
			C39.2,64.5,39.2,63.1,38.4,62.2z"/>
	</g>
</g>
<g>
	<g>
		<path class="st0" d="M71.2,59l3.2-3.2c0.9-0.9,0.9-2.3,0-3.2s-2.3-0.9-3.2,0L68,55.8l-3.2-3.2c-0.9-0.9-2.3-0.9-3.2,0
			s-0.9,2.3,0,3.2l3.2,3.2l-3.2,3.2c-0.9,0.9-0.9,2.3,0,3.2s2.3,0.9,3.2,0l3.2-3.2l3.2,3.2c0.9,0.9,2.3,0.9,3.2,0
			c0.9-0.9,0.9-2.3,0-3.2L71.2,59z"/>
	</g>
</g>
<g>
	<g>
		<path class="st0" d="M59,77H41c-1.2,0-2.2,1-2.2,2.2s1,2.2,2.2,2.2h18c1.2,0,2.2-1,2.2-2.2S60.2,77,59,77z"/>
	</g>
</g>
</svg>
