<?xml version="1.0" encoding="utf-8"?>
<!-- Generator: Adobe Illustrator 23.0.5, SVG Export Plug-In . SVG Version: 6.00 Build 0)  -->
<svg version="1.1"
	 id="Layer_1" xmlns:cc="http://creativecommons.org/ns#" xmlns:dc="http://purl.org/dc/elements/1.1/" xmlns:inkscape="http://www.inkscape.org/namespaces/inkscape" xmlns:rdf="http://www.w3.org/1999/02/22-rdf-syntax-ns#" xmlns:sodipodi="http://sodipodi.sourceforge.net/DTD/sodipodi-0.dtd" xmlns:svg="http://www.w3.org/2000/svg"
	 xmlns="http://www.w3.org/2000/svg" xmlns:xlink="http://www.w3.org/1999/xlink" x="0px" y="0px" viewBox="0 0 100 100"
	 style="enable-background:new 0 0 100 100;" xml:space="preserve">
<style type="text/css">
	.st0{fill:#80CED7;}
</style>
<g transform="translate(0,-952.36218)">
	<path class="st0" d="M30,963.4c-15.7,0-24.8,12.9-25,23.9c0,0,0,0,0,0.1c0,12.1,6.3,22.4,14.7,31.1c8.4,8.7,19.1,16,28.6,22.4
		c1,0.7,2.4,0.7,3.4,0c9.6-6.4,20.2-13.8,28.6-22.4c8.4-8.7,14.7-19,14.7-31.1c0,0,0,0,0-0.1c-0.2-11.1-9.3-23.9-25-23.9
		c-8.3,0-15.6,3.7-20,8.9C45.6,967,38.3,963.4,30,963.4z M30,969.4c7.9,0,15,4.7,17.3,9.3c0.7,1.5,2.5,2.1,4,1.4
		c0.6-0.3,1.1-0.8,1.4-1.4c2.3-4.7,9.4-9.3,17.3-9.3c12.3,0,18.8,10.2,19,18c0,0,0,0,0,0c0,0,0,0,0,0c0,10-5.2,18.8-13,26.8
		c-7.4,7.6-16.9,14.3-26,20.4c-9.1-6.1-18.6-12.8-26-20.4c-7.8-8-13-16.8-13-26.8c0,0,0,0,0,0c0,0,0,0,0,0
		C11.2,979.5,17.7,969.4,30,969.4z"/>
</g>
</svg>
