<?xml version="1.0" encoding="utf-8"?>
<!-- Generator: Adobe Illustrator 23.0.5, SVG Export Plug-In . SVG Version: 6.00 Build 0)  -->
<svg version="1.1" xmlns="http://www.w3.org/2000/svg" xmlns:xlink="http://www.w3.org/1999/xlink" x="0px" y="0px"
	 viewBox="0 0 100 100" style="enable-background:new 0 0 100 100;" xml:space="preserve">
<style type="text/css">
	.st0{fill:#43C59E;}
</style>
<g id="Layer_2">
</g>
<g id="Layer_1">
	<g>
		<path class="st0" d="M70.8,44.5H55.3V29c0-2.9-2.4-5.3-5.3-5.3c-2.9,0-5.3,2.4-5.3,5.3v15.5H29.2c-2.9,0-5.3,2.4-5.3,5.3
			c0,1.5,0.6,2.8,1.5,3.7c1,1,2.3,1.5,3.7,1.5h15.5v15.5c0,1.5,0.6,2.8,1.5,3.7c1,1,2.3,1.5,3.7,1.5c2.9,0,5.3-2.4,5.3-5.3V55.1
			h15.5c2.9,0,5.3-2.4,5.3-5.3C76,46.9,73.7,44.5,70.8,44.5z"/>
		<path class="st0" d="M50,2.3C23.8,2.3,2.5,23.6,2.5,49.8S23.8,97.3,50,97.3S97.5,76,97.5,49.8S76.2,2.3,50,2.3z M50,86.7
			c-20.4,0-36.9-16.5-36.9-36.9S29.6,12.9,50,12.9s36.9,16.5,36.9,36.9S70.4,86.7,50,86.7z"/>
	</g>
</g>
</svg>
