<?xml version="1.0" encoding="utf-8"?>
<!-- Generator: Adobe Illustrator 23.0.5, SVG Export Plug-In . SVG Version: 6.00 Build 0)  -->
<svg version="1.1" id="Layer_1" xmlns="http://www.w3.org/2000/svg" xmlns:xlink="http://www.w3.org/1999/xlink" x="0px" y="0px"
	 viewBox="0 0 100 100" style="enable-background:new 0 0 100 100;" xml:space="preserve">
<g>
	<path d="M77.5,50.4h5.2c0.7,2.6,3,4.5,5.8,4.5c3.3,0,6-2.7,6-6c0-3.3-2.7-6-6-6c-2.8,0-5.1,1.9-5.8,4.5h-5.2
		c-0.4-6.6-3.2-12.5-7.6-16.9l5.3-5.9c1.5,0.9,3.2,1.3,4.8,1.3c2.5,0,5.1-1,7-3c1.7-1.8,2.5-4.2,2.5-6.5c0-2.5-1-5.1-3-7
		c-1.8-1.7-4.2-2.5-6.5-2.5c-2.5,0-5.1,1-7,3c-1.7,1.8-2.5,4.2-2.5,6.5c0,2.2,0.8,4.5,2.3,6.2l-5.2,5.9c-4.4-3.5-10-5.6-16.1-5.6
		c-6.1,0-11.7,2.1-16.1,5.6l-5.8-6.5c1.2-1.6,1.9-3.5,1.9-5.7c0-5.2-4.3-9.5-9.5-9.5c-5.2,0-9.5,4.3-9.5,9.5c0,5.2,4.3,9.5,9.5,9.5
		c2,0,3.9-0.6,5.5-1.7l5.7,6.4c-4.4,4.4-7.2,10.3-7.6,16.9h-4.2c-0.7-3.7-3.9-6.5-7.9-6.5c-4.4,0-8,3.6-8,8c0,4.4,3.6,8,8,8
		c3.9,0,7.2-2.8,7.9-6.5h4.2c0.4,6.6,3.2,12.5,7.6,16.9l-7.7,8.7c-1.2-0.6-2.5-1-3.9-1c-4.4,0-8,3.6-8,8c0,4.4,3.6,8,8,8
		c4.4,0,8-3.6,8-8c0-1.9-0.7-3.7-1.8-5l7.6-8.6c4.4,3.5,10,5.6,16.2,5.6c6.1,0,11.7-2.1,16.1-5.6l3.9,4.4c-1.9,2-3,4.8-3,7.8
		c0,6.4,5.1,11.5,11.5,11.5c6.4,0,11.5-5.1,11.5-11.5c0-6.4-5.1-11.5-11.5-11.5c-2.3,0-4.4,0.7-6.2,1.8l-3.9-4.4
		C74.3,62.9,77.1,57,77.5,50.4z M75.2,12c1.3-1.4,3-2.1,4.8-2.1c1.6,0,3.2,0.6,4.4,1.7c1.4,1.3,2.1,3,2.1,4.8c0,1.6-0.6,3.2-1.7,4.4
		c-1.3,1.4-3,2.1-4.8,2.1c-1.6,0-3.2-0.6-4.4-1.7c-1.4-1.3-2.1-3-2.1-4.8C73.5,14.8,74.1,13.2,75.2,12z M86,75.4
		c1.5,1.5,2.5,3.7,2.5,6c0,2.4-0.9,4.5-2.5,6c-1.5,1.5-3.7,2.5-6,2.5c-2.4,0-4.5-0.9-6-2.5c-1.5-1.5-2.5-3.7-2.5-6
		c0-2.4,0.9-4.5,2.5-6c1.5-1.5,3.7-2.5,6-2.5C82.4,72.9,84.5,73.9,86,75.4z M88.5,45.9c1.7,0,3,1.3,3,3c0,1.7-1.3,3-3,3
		c-1.7,0-3-1.3-3-3C85.5,47.3,86.8,45.9,88.5,45.9z M17.4,21c-1.2-1.2-1.9-2.8-1.9-4.6c0-1.8,0.7-3.4,1.9-4.6
		c1.2-1.2,2.8-1.9,4.6-1.9c1.8,0,3.4,0.7,4.6,1.9c1.2,1.2,1.9,2.8,1.9,4.6c0,1.8-0.7,3.4-1.9,4.6c-1.2,1.2-2.8,1.9-4.6,1.9
		C20.2,22.9,18.6,22.2,17.4,21z M17,52.5c-0.9,0.9-2.1,1.5-3.5,1.5c-1.4,0-2.6-0.6-3.5-1.5c-0.9-0.9-1.5-2.1-1.5-3.5
		c0-1.4,0.6-2.6,1.5-3.5c0.9-0.9,2.2-1.5,3.5-1.5c1.4,0,2.6,0.6,3.5,1.5c0.9,0.9,1.5,2.2,1.5,3.5C18.5,50.3,17.9,51.5,17,52.5z
		 M25,86.5c-0.9,0.9-2.1,1.5-3.5,1.5c-1.4,0-2.6-0.6-3.5-1.5c-0.9-0.9-1.5-2.2-1.5-3.5c0-1.4,0.6-2.6,1.5-3.5
		c0.9-0.9,2.1-1.5,3.5-1.5c1.4,0,2.6,0.6,3.5,1.5c0.9,0.9,1.5,2.1,1.5,3.5C26.5,84.3,25.9,85.5,25,86.5z M35.2,65.2
		c-4.2-4.2-6.7-9.9-6.7-16.3c0-6.4,2.6-12.1,6.7-16.3c4.2-4.2,9.9-6.7,16.3-6.7c6.4,0,12.1,2.6,16.3,6.7c4.2,4.2,6.7,9.9,6.7,16.3
		c0,6.4-2.6,12.1-6.7,16.3c-4.2,4.2-9.9,6.7-16.3,6.7C45.2,71.9,39.4,69.3,35.2,65.2z"/>
	<path d="M48.5,53.9c-3.3,0-6,2.7-6,6c0,3.3,2.7,6,6,6c3.3,0,6-2.7,6-6C54.5,56.6,51.8,53.9,48.5,53.9z M48.5,62.9c-1.7,0-3-1.3-3-3
		c0-1.7,1.3-3,3-3c1.7,0,3,1.3,3,3C51.5,61.6,50.2,62.9,48.5,62.9z"/>
	<path d="M46.5,43.9c0-2.8-2.2-5-5-5c-2.8,0-5,2.2-5,5c0,2.8,2.2,5,5,5C44.3,48.9,46.5,46.7,46.5,43.9z M41.5,45.9c-1.1,0-2-0.9-2-2
		c0-1.1,0.9-2,2-2c1.1,0,2,0.9,2,2C43.5,45,42.6,45.9,41.5,45.9z"/>
	<path d="M60.5,36.9c-4.4,0-8,3.6-8,8c0,4.4,3.6,8,8,8c4.4,0,8-3.6,8-8C68.5,40.5,64.9,36.9,60.5,36.9z M64,48.5
		c-0.9,0.9-2.2,1.5-3.5,1.5c-1.4,0-2.6-0.6-3.5-1.5c-0.9-0.9-1.5-2.2-1.5-3.5c0-1.4,0.6-2.6,1.5-3.5c0.9-0.9,2.1-1.5,3.5-1.5
		c1.4,0,2.6,0.6,3.5,1.5c0.9,0.9,1.5,2.2,1.5,3.5C65.5,46.3,65,47.5,64,48.5z"/>
</g>
</svg>
