<?xml version="1.0" encoding="utf-8"?>
<!-- Generator: Adobe Illustrator 23.0.5, SVG Export Plug-In . SVG Version: 6.00 Build 0)  -->
<svg version="1.1" xmlns="http://www.w3.org/2000/svg" xmlns:xlink="http://www.w3.org/1999/xlink" x="0px" y="0px"
	 viewBox="0 0 100 100" style="enable-background:new 0 0 100 100;" xml:space="preserve">
<g id="Layer_2">
</g>
<g id="Layer_1">
	<g>
		<path d="M5273.1,2400.1v-2c0-2.8-5-4-9.7-4s-9.7,1.3-9.7,4v2c0,1.8,0.7,3.6,2,4.9l5,4.9c0.3,0.3,0.4,0.6,0.4,1v6.4
			c0,0.4,0.2,0.7,0.6,0.8l2.9,0.9c0.5,0.1,1-0.2,1-0.8v-7.2c0-0.4,0.2-0.7,0.4-1l5.1-5C5272.4,2403.7,5273.1,2401.9,5273.1,2400.1z
			 M5263.4,2400c-4.8,0-7.4-1.3-7.5-1.8l0,0c0.1-0.5,2.7-1.8,7.5-1.8s7.3,1.3,7.5,1.8C5270.7,2398.7,5268.2,2400,5263.4,2400z"/>
		<path d="M5268.4,2410.3c-0.6,0-1,0.4-1,1s0.4,1,1,1h4.3c0.6,0,1-0.4,1-1s-0.4-1-1-1H5268.4z"/>
		<path d="M5272.7,2413.7h-4.3c-0.6,0-1,0.4-1,1s0.4,1,1,1h4.3c0.6,0,1-0.4,1-1C5273.7,2414.1,5273.3,2413.7,5272.7,2413.7z"/>
		<path d="M5272.7,2417h-4.3c-0.6,0-1,0.4-1,1s0.4,1,1,1h4.3c0.6,0,1-0.4,1-1C5273.7,2417.5,5273.3,2417,5272.7,2417z"/>
	</g>
	<path d="M86,15.1L86,15.1C66.2,13.2,55,4.4,55,4.3c-2.9-2.4-7-2.4-9.9,0C45,4.4,33.8,13.2,14,15.1c-4,0.4-7,3.7-7,7.7
		c0,56,38.3,73.3,39.9,74c1,0.4,2,0.6,3.1,0.6s2.1-0.2,3.1-0.6c1.6-0.7,39.9-18,39.9-74C93,18.8,90,15.5,86,15.1z M49.9,90
		c-0.6-0.3-7.5-3.4-15-11.1l1-8.7c0.6-4.8,4.6-8.4,9.4-8.4h9.3c4.8,0,8.9,3.6,9.4,8.4l1,8.7C57.6,86.6,50.6,89.7,49.9,90z M50,52.8
		c-4.8,0-8.7-3.9-8.7-8.7s3.9-8.7,8.7-8.7s8.7,3.9,8.7,8.7S54.8,52.8,50,52.8z M71.7,70.9l-0.2-1.6c-0.7-6.2-4.8-11.2-10.2-13.6
		c3-3,4.9-7.1,4.9-11.6c0-8.9-7.3-16.2-16.2-16.2s-16.2,7.3-16.2,16.2c0,4.6,1.9,8.7,4.9,11.6c-5.4,2.3-9.5,7.4-10.2,13.6l-0.2,1.6
		c-7.3-10.5-13.6-26-13.5-48.2c22.6-2.2,35-12.5,35.4-12.5c0.5,0.4,13,10.4,35.1,12.5l0.2,0.2C85.5,45,79.1,60.5,71.7,70.9z"/>
</g>
</svg>
