<?xml version="1.0" encoding="utf-8"?>
<!-- Generator: Adobe Illustrator 24.1.0, SVG Export Plug-In . SVG Version: 6.00 Build 0)  -->
<svg version="1.1" id="Layer_1" xmlns="http://www.w3.org/2000/svg" xmlns:xlink="http://www.w3.org/1999/xlink" x="0px" y="0px"
	 viewBox="0 0 178 235" style="enable-background:new 0 0 178 235;" xml:space="preserve">
<path d="M94.6,42c-0.4,0.8-0.5,0.9-0.5,1c0,3.8-1.4,8.6,0.4,11.2c1.5,2.2,6.6,2.2,10.2,2.7c35.9,4.8,66.7,37,71.6,73.3
	c5.9,43.8-21,83.8-61,95.8c-49.9,14.9-101.5-16-111-67.3C-4.6,110.7,26,67.4,72,57.1c2.6-0.6,5.3-1.4,7.8-1c5.7,0.8,6.4-2,6.3-6.8
	C85.9,36,86,22.7,86.1,9.3c0-6,1.1-7.1,6.8-7.2c13.3,0,26.7-0.1,40,0.1c1.9,0,5.1,0.9,5.5,2.1c0.6,1.7-0.5,4.3-1.6,6.2
	c-2.3,4-7.1,7.7-7.1,11.5s4.8,7.6,7.1,11.5c1.1,1.9,2.4,4.6,1.7,6.2s-3.8,2.1-5.9,2.1C120,42.1,107.3,42,94.6,42z M85.9,146.5H48.3
	l4.3,36.1l33.2-4V146.5z M127.5,182.5c1.3-11.7,2.7-23.7,4.1-36.1H94.3v32.2L127.5,182.5z M94.3,106.6v32h37.3
	c-1.4-12.4-2.8-24.2-4.2-36L94.3,106.6z M52.5,102.6c-1.3,11.8-2.7,23.8-4,36h37.2v-32.1L52.5,102.6z M10.6,146
	c0.6,18.2,7,33.4,17.6,46.7l16.8-8c-1-11.8-1.9-23.1-3-34.5c-0.1-1.5-1.6-4-2.6-4.1C29.9,145.9,20.4,146,10.6,146z M169.4,146
	c-10,0-19.4-0.1-28.8,0.1c-0.9,0-2.4,1.7-2.5,2.8c-1.1,11.9-2,23.9-3,35.8l16.8,8C162.4,179.3,168.7,164.3,169.4,146L169.4,146z
	 M45.1,100.5l-17-8.1c-10.6,13.6-16.8,28.8-17.6,46.3h30.7C42.5,125.9,43.8,113.4,45.1,100.5z M169.4,138.8
	c-0.7-18-7-33.2-17.5-46.4l-17,8.1c1.3,12.7,2.6,25.5,3.9,38.3H169.4z M53.8,189.8c3.7,9.5,6.8,17.4,10.1,25.3
	c0.6,1.4,1.7,3.4,3,3.7c6.1,1.5,12.4,2.6,19,3.9v-36.4L53.8,189.8z M94.3,186.2v36.6c6.6-1.4,12.8-2.5,18.8-3.9
	c1.2-0.5,2.1-1.5,2.6-2.7c3.4-8.4,6.7-16.8,10.5-26.3L94.3,186.2z M85.8,62.6c-5.2,0.9-10.1,1.7-14.9,2.5c-3.9,0.6-6.6,2.5-8,6.4
	c-2.7,7.5-5.7,15-9,23.9l31.9,3.5L85.8,62.6z M125.8,94.3c-3.4-8.5-6.5-16.4-9.7-24.3c-0.5-1.3-1.5-3.1-2.6-3.4
	c-6.3-1.6-12.6-2.8-19.2-4.2v36.5c9.2-1,18.1-1.9,26.9-2.9C122.4,95.8,123.6,95.1,125.8,94.3L125.8,94.3z M127.4,34.6l1.3-0.7
	c-9.9-7.8-9-15.7-0.3-23.6H94.2v24.4H127.4z M32.4,198.8L53,213.6l0.9-1.1c-2.2-6.6-4.4-13.2-6.8-20.4L32.4,198.8z M32.5,86.4
	l14.7,6.7L54,72.5l-1-1L32.5,86.4z M147.6,86.4L127,71.6l-0.9,1.2c2.2,6.6,4.4,13.3,6.8,20.5L147.6,86.4z M126.1,212.5l1,1.2
	l20.5-15l-14.8-6.5C130.4,199.5,128.2,206,126.1,212.5z"/>
</svg>
