<svg xmlns="http://www.w3.org/2000/svg" viewBox="0 0 423.84 496"><g id="Layer_2" data-name="Layer 2"><g id="Layer_1-2" data-name="Layer 1"><path d="M179.8,388.9H31.8C13,388.9,0,376,0,357.2V232.7c0-18.5,13.1-31.5,31.5-31.5H328c18.8,0,31.8,13,31.8,31.7v124c0,19.2-12.8,32-32,32Zm-29.7-43.8c-1.3-2-2-3.3-2.9-4.5-9-13-18-26-27.2-38.9-2.1-2.9-2-5-.1-7.9,8.6-13.5,17-27.1,25.4-40.6a40.41,40.41,0,0,0,2.3-4.3c-9,0-17.4.1-25.6-.1-3.1-.1-4.8,1.1-6.2,3.8-4.6,8.5-9.4,16.8-14.5,25.8-5.2-9-10.1-17.4-15.2-25.8-.9-1.4-2.4-3.5-3.6-3.5-8.9-.3-17.8-.2-27.5-.2,1.5,2.5,2.5,4.2,3.6,5.9,8.1,12.6,16.1,25.3,24.3,37.8,1.6,2.4,1.6,4.1,0,6.6q-13.5,20.4-26.8,41c-.9,1.4-1.7,2.9-3,5,8.7,0,16.3-.3,23.9.1,4.3.2,6.6-1.3,8.7-4.9,4.8-8.3,10-16.4,15.4-25.1,5.8,9.3,11.1,18,16.6,26.4,1,1.5,3.1,3.2,4.8,3.3,8.9.3,17.7.1,27.6.1Zm152.6-90.9c-15.6-6.7-31-9.5-46.9-4.8-16.6,4.9-24.2,19.7-18.9,36.2,2.5,7.8,8.2,12.8,15.2,16.5,6.6,3.5,13.5,6.6,20.1,10,2.9,1.5,5.1,4.2,3.6,7.3a10.15,10.15,0,0,1-6.4,5.1,35,35,0,0,1-12.9-.4c-7.2-1.6-14.2-4-21.7-6.2,0,6.3.1,12.6-.1,18.9-.1,2.8.9,4.1,3.5,5.1a59.15,59.15,0,0,0,31.4,4.1c6.9-1,14.2-2.9,20.1-6.4,16.5-9.5,18.1-36.5.5-46.9-3.3-2-6.7-3.7-10.1-5.4-5.1-2.7-10.5-5.1-15.4-8.2a6.84,6.84,0,0,1-2.5-5.8c.3-1.7,2.7-3.6,4.6-4.4a14.31,14.31,0,0,1,7.4-.5c6.8,1.4,13.5,3.3,20.8,5.1C297.3,267.7,299.9,261.2,302.7,254.2ZM161,344.7h62.7v-21H186.9V249.1H161Z"/><path d="M55.8,185.6H41V31.2C41,12.9,53.7,0,72.1,0Q190.9,0,309.6.1a10.91,10.91,0,0,1,6.9,2.8q52.5,51.9,104.6,104a10.42,10.42,0,0,1,2.6,6.5q.15,175.35.1,350.6c0,19-13,32-32.1,32H72.7c-18.2,0-31.6-13.4-31.7-31.5V405.6H55.8v58c0,11.2,6.4,17.6,17.7,17.6H392c10.2,0,16.1-6,16.1-16.8V119.8c0-6.6-2.4-9-8.9-9H343.7c-19,0-31.6-12.6-31.6-31.7-.1-18.5,0-37,0-55.5,0-6-2.8-8.8-8.7-8.8H72.9c-11.1,0-17,5.9-17,16.9V179.2ZM327.4,35.8c-.2,1.5-.4,2.9-.5,4.4,0,13.5-.1,27,0,40.5.1,8.8,6.3,15.2,15.1,15.3,14.3.2,28.6.1,43,0a2,2,0,0,0,1.1-.3Z"/></g></g></svg>