<?xml version="1.0" encoding="utf-8"?>
<!-- Generator: Adobe Illustrator 24.1.0, SVG Export Plug-In . SVG Version: 6.00 Build 0)  -->
<svg version="1.1" id="Layer_1" xmlns="http://www.w3.org/2000/svg" xmlns:xlink="http://www.w3.org/1999/xlink" x="0px" y="0px"
	 viewBox="0 0 512 512" style="enable-background:new 0 0 512 512;" xml:space="preserve">
<path d="M223.8,396.9c-49.3,0-98.7,0-148,0c-18.8,0-31.8-12.9-31.8-31.7c0-41.5,0-83,0-124.5c0-18.5,13.1-31.5,31.5-31.5
	c98.8,0,197.7,0,296.5,0c18.8,0,31.8,13,31.8,31.7c0,41.3,0,82.7,0,124c0,19.2-12.8,32-32,32C322.5,396.9,273.2,396.9,223.8,396.9z
	 M194.1,353.1c-1.3-2-2-3.3-2.9-4.5c-9-13-18-26-27.2-38.9c-2.1-2.9-2-5-0.1-7.9c8.6-13.5,17-27.1,25.4-40.6
	c0.8-1.2,1.4-2.5,2.3-4.3c-9,0-17.4,0.1-25.6-0.1c-3.1-0.1-4.8,1.1-6.2,3.8c-4.6,8.5-9.4,16.8-14.5,25.8c-5.2-9-10.1-17.4-15.2-25.8
	c-0.9-1.4-2.4-3.5-3.6-3.5c-8.9-0.3-17.8-0.2-27.5-0.2c1.5,2.5,2.5,4.2,3.6,5.9c8.1,12.6,16.1,25.3,24.3,37.8c1.6,2.4,1.6,4.1,0,6.6
	c-9,13.6-17.9,27.3-26.8,41c-0.9,1.4-1.7,2.9-3,5c8.7,0,16.3-0.3,23.9,0.1c4.3,0.2,6.6-1.3,8.7-4.9c4.8-8.3,10-16.4,15.4-25.1
	c5.8,9.3,11.1,18,16.6,26.4c1,1.5,3.1,3.2,4.8,3.3C175.4,353.3,184.2,353.1,194.1,353.1L194.1,353.1z M346.7,262.2
	c-15.6-6.7-31-9.5-46.9-4.8c-16.6,4.9-24.2,19.7-18.9,36.2c2.5,7.8,8.2,12.8,15.2,16.5c6.6,3.5,13.5,6.6,20.1,10
	c2.9,1.5,5.1,4.2,3.6,7.3c-1.1,2.3-4,4.7-6.4,5.1c-4.3,0.7-8.6,0.5-12.9-0.4c-7.2-1.6-14.2-4-21.7-6.2c0,6.3,0.1,12.6-0.1,18.9
	c-0.1,2.8,0.9,4.1,3.5,5.1c9.9,4.2,20.7,5.6,31.4,4.1c6.9-1,14.2-2.9,20.1-6.4c16.5-9.5,18.1-36.5,0.5-46.9c-3.3-2-6.7-3.7-10.1-5.4
	c-5.1-2.7-10.5-5.1-15.4-8.2c-1.7-1.4-2.7-3.6-2.5-5.8c0.3-1.7,2.7-3.6,4.6-4.4c2.4-0.8,4.9-1,7.4-0.5c6.8,1.4,13.5,3.3,20.8,5.1
	C341.3,275.7,343.9,269.2,346.7,262.2z M205,352.7h62.7v-21h-36.8v-74.6H205V352.7z"/>
<path d="M99.8,193.6H85v-5.4c0-49.7,0-99.4,0-149C85,20.9,97.7,8,116.1,8C195.3,8,274.4,8,353.6,8.1c2.6,0.1,5,1.1,6.9,2.8
	c35,34.6,69.9,69.2,104.6,104c1.6,1.8,2.5,4.1,2.6,6.5c0.1,116.9,0.2,233.7,0.1,350.6c0,19-13,32-32.1,32c-106.3,0-212.7,0-319,0
	c-18.2,0-31.6-13.4-31.7-31.5c0-19.5,0-39,0-58.9h14.8c0,1.7,0,3.6,0,5.5c0,17.5,0,35,0,52.5c0,11.2,6.4,17.6,17.7,17.6H436
	c10.2,0,16.1-6,16.1-16.8c0-73.7,0-147.4,0-221.1c0-41.2,0-82.4,0-123.5c0-6.6-2.4-9-8.9-9c-18.5,0-37,0-55.5,0
	c-19,0-31.6-12.6-31.6-31.7c-0.1-18.5,0-37,0-55.5c0-6-2.8-8.8-8.7-8.8c-76.8,0-153.7,0-230.5,0c-11.1,0-17,5.9-17,16.9
	c0,49.2,0,98.4,0,147.5L99.8,193.6z M371.4,43.8c-0.2,1.5-0.4,2.9-0.5,4.4c0,13.5-0.1,27,0,40.5c0.1,8.8,6.3,15.2,15.1,15.3
	c14.3,0.2,28.6,0.1,43,0c0.4,0,0.8-0.1,1.1-0.3L371.4,43.8z"/>
</svg>
