<svg id="Layer_1" data-name="Layer 1" xmlns="http://www.w3.org/2000/svg" viewBox="0 0 588.2 917.2"><path d="M608.9,821.7,381.2,690.2l22.6-39L631.5,782.6Z" transform="translate(-381.2 -72.8)"/><path d="M841.3,896.6c65.8-62.1,107.5-149.4,107.5-246.7a340.26,340.26,0,0,0-161-289L897.5,170.8l-17.3-10,27.2-47-71-41-27.1,47-18.2-10.5L521.2,576.8l23.6,13.6-33.5,58,59.2,34.2L604,624.7l23.6,13.6L741.1,441.7A246.52,246.52,0,0,1,855.3,649.9c0,136.1-110.7,246.7-246.8,246.7H409.6V990H969.4V896.6Z" transform="translate(-381.2 -72.8)"/></svg>