<?xml version="1.0" encoding="utf-8"?>
<!-- Generator: Adobe Illustrator 24.1.0, SVG Export Plug-In . SVG Version: 6.00 Build 0)  -->
<svg version="1.1" id="Layer_1" xmlns="http://www.w3.org/2000/svg" xmlns:xlink="http://www.w3.org/1999/xlink" x="0px" y="0px"
	 viewBox="0 0 512 512" style="enable-background:new 0 0 512 512;" xml:space="preserve">
<path d="M102.6,366.5l-27.8,27.8C23.8,330.6,8,209,86.8,117.6c81.6-94.9,225.7-104.2,319.1-20c92.5,83.5,92.8,216.2,31.6,296.9
	l-28.2-28.2c30.9-48.4,39.3-101,22.5-157c-12-39.6-35.3-71.5-69.1-95.4c-69.8-49.3-162.1-44.6-226.9,10.4
	C72,178.6,46.7,282.9,102.6,366.5z"/>
<path d="M367.5,463.8H144.2c3.8-28.2,8.5-55.7,29.4-77c6.5-6.7,14.8-10.9,24.1-10.6c21.9,0.8,32.1-24.1,22.7-41.2
	c-1.6-2.9-3.7-5.6-6-8c-4.3-4.3-6.6-10.2-6.5-16.2c0.3-14.2-0.7-28.4,0.9-42.5c2.6-23.2,15.8-34.5,40.3-36.1
	c6.8-0.4,13.7-0.1,20.4,1.1c20.5,3.7,33.6,20.2,34.4,43.1c0.4,12.2,0.2,24.3,0.1,36.5c-0.1,5.8-2.9,10.4-6.9,14.5
	c-10,10.3-11.8,24.1-5,36.4c3.9,7.1,10,11.8,18,11.9c20.2,0.2,32.3,11.7,41.1,27.9C361.1,422.2,365.5,442.5,367.5,463.8z"/>
<path d="M396.9,354.7L368.1,326c16.4-31,20.6-63.7,10.6-97.8c-8.4-28.9-25.2-51.9-49.7-69.3c-46.3-32.9-109.1-30.5-154.3,6.1
	c-43,34.9-63.3,100.3-31.2,160.8L115,354.3c-38.5-54.9-40.2-147.5,23.3-210.3c63.3-62.5,165.7-64.3,231-4.2
	C436.1,201.4,437.3,295.8,396.9,354.7z"/>
</svg>
