<?xml version="1.0" encoding="iso-8859-1"?>
<!-- Generator: Adobe Illustrator 19.0.0, SVG Export Plug-In . SVG Version: 6.00 Build 0)  -->
<svg version="1.1" id="Capa_1" xmlns="http://www.w3.org/2000/svg" xmlns:xlink="http://www.w3.org/1999/xlink" x="0px" y="0px"
	 viewBox="0 0 512 512" style="enable-background:new 0 0 512 512;" xml:space="preserve">
<g>
	<g>
		<path d="M505.643,283.209c-6.394-10.543-16.616-17.438-27.85-19.973c-3.397-8.749-8.569-16.796-15.313-23.681
			c-8.328-8.498-18.47-14.642-29.554-18.039c0.651-3.868,0.982-7.807,0.982-11.806c0-38.774-31.538-70.312-70.302-70.312
			c-19.933,0-38.814,8.579-52.002,23.04c-5.983-2.305-12.367-3.498-18.951-3.498c-29.123,0-52.824,23.701-52.824,52.824
			c0,2.125,0.13,4.229,0.371,6.314h-92.4L0,358.201l116.311,144.502l77.969-85.645h173.385l122.986-73.539
			c10.092-6.033,17.207-15.634,20.043-27.038C513.52,305.076,511.726,293.261,505.643,283.209z M292.652,189.005
			c5.101,0,9.921,1.654,13.95,4.79l13.559,10.543l8.659-14.842c7.196-12.357,20.524-20.033,34.785-20.033
			c22.188,0,40.237,18.059,40.237,40.247c0,6.053-1.313,11.876-3.908,17.297l-10.012,20.985l23.24,0.521
			c14.06,0.321,26.427,8.017,33.372,19.312c-0.21,0.11-0.421,0.23-0.631,0.351l-87.98,51.882H287.37l-0.01-0.15l-0.421,0.15H273.47
			v-13.549h35.567c24.383,0,44.226-19.833,44.226-44.216s-19.843-44.215-44.226-44.215h-38.253c-0.59-2.024-0.891-4.149-0.891-6.314
			C269.893,199.217,280.105,189.005,292.652,189.005z M476.75,316.662c-0.481,0.381-0.992,0.732-1.523,1.052l-115.87,69.28H180.991
			v-0.001l-63.277,69.51l-76.906-95.556l118.977-112.804h149.253c7.807,0,14.161,6.354,14.161,14.151
			c0,7.807-6.354,14.151-14.161,14.151h-65.632v73.679h122.725l84.683-49.938l10.362-6.113c6.464-3.808,14.862-1.694,18.751,4.71
			c0.591,0.972,1.052,2.004,1.373,3.067C480.338,307.011,478.795,311.972,476.75,316.662z"/>
	</g>
</g>
<g>
	<g>
		<path d="M220.897,82.856c-24.723,0-44.847,20.123-44.847,44.847c0.001,24.733,20.124,44.857,44.847,44.857
			c24.734,0,44.857-20.124,44.857-44.857C265.754,102.98,245.631,82.856,220.897,82.856z M220.897,142.495
			c-8.148,0-14.782-6.634-14.782-14.792c0-8.148,6.635-14.782,14.782-14.782c8.158,0,14.792,6.634,14.792,14.782
			C235.689,135.861,229.055,142.495,220.897,142.495z"/>
	</g>
</g>
<g>
	<g>
		<path d="M325.373,9.297c-30.686,0-55.65,24.964-55.65,55.65c0,30.686,24.964,55.66,55.65,55.66c30.686,0,55.65-24.974,55.65-55.66
			C381.023,34.261,356.059,9.297,325.373,9.297z M325.373,90.542c-14.11,0-25.585-11.485-25.585-25.595
			c0-14.11,11.475-25.585,25.585-25.585c14.111,0,25.585,11.475,25.585,25.585C350.958,79.057,339.483,90.542,325.373,90.542z"/>
	</g>
</g>
<g>
</g>
<g>
</g>
<g>
</g>
<g>
</g>
<g>
</g>
<g>
</g>
<g>
</g>
<g>
</g>
<g>
</g>
<g>
</g>
<g>
</g>
<g>
</g>
<g>
</g>
<g>
</g>
<g>
</g>
</svg>
