<?xml version="1.0"?>
<svg xmlns="http://www.w3.org/2000/svg" version="1" viewBox="0 0 26 26" enable-background="new 0 0 26 26">
    <path d="M 13 0.59375 C 11.9 0.59375 12.4 2.2125 12.5 2.8125 L 12.5 7.3125 C 12.8 7.2125 13.10625 7.19375 13.40625 7.09375 C 13.40625 6.79375 13.5 2.8875 13.5 2.6875 C 13.5 2.0875 14.1 0.59375 13 0.59375 z M 13.90625 2 L 13.8125 3.5 C 15.508333 3.6833333 17.038462 4.4674696 18.21875 5.625 L 17.90625 6 L 17.90625 5.90625 L 17.8125 5.90625 L 17.8125 5.8125 L 17.6875 5.8125 L 17.6875 5.6875 L 17.59375 5.5 L 17.3125 5.1875 L 17 5 L 16.90625 4.90625 L 16.8125 4.90625 L 16.8125 4.8125 L 16.59375 4.6875 L 16.5 4.8125 C 16.7 5.1125 16.8125 5.3875 16.8125 5.6875 L 16.8125 6.3125 L 16.90625 6.3125 L 17 6.6875 L 16.8125 6.6875 L 17 6.90625 L 16.6875 7.1875 L 16.5 7 L 16.5 6.90625 C 16.5 7.00625 16.40625 7.0875 16.40625 7.1875 L 16.59375 7.1875 L 16.5 7.3125 L 16.40625 7.1875 L 16.3125 7.09375 C 16.3125 7.09375 16.2875 7.1875 16.1875 7.1875 L 16.3125 7.3125 L 15.1875 8.40625 C 15.0875 8.30625 15.00625 8.1875 14.90625 8.1875 C 14.90625 8.1875 14.8125 8.2125 14.8125 8.3125 L 15.09375 8.59375 L 15 8.6875 L 15 8.59375 L 14.8125 9 L 14.40625 9.09375 L 14.3125 9.1875 L 14.1875 9.1875 L 14.1875 9.3125 L 14.3125 9.3125 L 14.40625 9.3125 L 14.40625 9.40625 L 14.3125 9.40625 L 14.09375 9.40625 L 14 9.3125 L 13.90625 9.3125 C 13.83125 9.3125 13.796875 9.246875 13.75 9.21875 L 13.8125 9.1875 L 13.90625 8.90625 L 13.6875 8.90625 L 13.6875 9 L 13.59375 9 L 13.59375 9.3125 L 13.6875 9.25 L 13.6875 9.59375 L 13.6875 10 L 13.59375 10.09375 L 13.59375 10.3125 L 13.8125 10.09375 L 13.8125 10.1875 L 13.90625 10.1875 L 13.90625 10.40625 L 14 10.5 L 13.8125 10.40625 L 13.8125 10.5 C 14.1125 10.6 14.50625 10.79375 14.90625 11.09375 C 15.40625 11.49375 15.69375 12 15.59375 12.5 C 15.49375 12.9 15.3 13.20625 15 13.40625 L 14.90625 13.5 L 14.8125 13.5 L 14.8125 13.59375 L 14.59375 13.6875 L 14.40625 13.6875 L 14.3125 13.8125 L 14.3125 13.90625 L 14.1875 13.90625 L 14 13.90625 L 14 13.8125 L 13.8125 13.8125 L 13.6875 13.8125 L 13.6875 13.90625 L 13.6875 14.59375 C 14.2875 14.89375 14.90625 15.3 14.90625 16.5 C 14.90625 16.5 14.9125 16.70625 14.8125 16.90625 L 15 17 L 13.5 17.3125 L 13.5 17.40625 C 14 17.40625 14.5 17.29375 15 17.09375 L 15.09375 17.09375 L 15.1875 17.1875 L 15.3125 17.09375 L 15.5 17.09375 L 15.59375 17 L 15.8125 16.90625 L 16 16.6875 L 16.3125 16.40625 C 16.447902 16.325009 16.564779 16.239477 16.6875 16.15625 L 16.6875 16.09375 L 16.59375 16 L 16.6875 15.6875 L 16.90625 15.40625 L 16.6875 15.1875 L 16.59375 15.1875 L 16.5 15.1875 L 16.40625 15 L 16.40625 14.8125 L 16.40625 14.6875 L 16.5 14.59375 L 17.1875 15.3125 L 17.4375 15.53125 C 17.487851 15.484043 17.543596 15.456404 17.59375 15.40625 L 17.6875 15.3125 L 17.59375 15 L 17.59375 14.90625 L 17.5 14.8125 L 17.40625 14.6875 L 17.3125 14.6875 L 17.3125 14.8125 L 17.1875 14.8125 L 17.1875 14.90625 L 17.1875 15 L 16.59375 14.40625 C 16.562903 14.438847 16.531854 14.468146 16.5 14.5 L 16.5 14.3125 L 16.5 14 L 16.40625 13.8125 L 16.3125 13.90625 L 16 14.09375 L 15.90625 14.09375 L 15.6875 14.09375 L 15.5 14 L 15.40625 14 L 15.3125 13.90625 L 15.1875 13.90625 L 15.09375 13.8125 L 15 13.8125 L 14.90625 13.6875 L 15.09375 13.6875 L 15.1875 13.6875 L 15.40625 13.6875 L 15.59375 13.6875 L 15.8125 13.8125 L 15.90625 13.90625 L 16 13.90625 L 16.09375 13.8125 L 16.1875 13.59375 L 16.3125 13.3125 L 16.3125 13.1875 L 16.40625 13.09375 L 16.40625 12.90625 L 16.40625 12.8125 L 16.40625 12.6875 L 16.3125 12.59375 L 16.3125 12.40625 L 16.1875 12.40625 L 16.59375 12.1875 L 16.59375 12.09375 L 16.6875 12.1875 L 16.90625 12.1875 L 17.09375 12.09375 L 17.40625 12 L 17.3125 11.8125 L 17.1875 11.6875 L 17 11.6875 L 16.8125 11.1875 L 16.6875 11.09375 L 16.8125 11.09375 L 17.90625 11.09375 C 17.90625 12.06875 17.614062 13.003125 17.09375 13.78125 C 17.674306 12.95055 18.014583 11.935417 18.09375 10.90625 C 18.09375 10.60625 18.1 10.3 18 10 L 18 9.90625 L 18.09375 9.5 L 18 9.5 L 18 9.40625 L 17.84375 9.40625 C 17.834067 9.3710773 17.8125 9.3379902 17.8125 9.3125 L 17.90625 9.1875 L 17.90625 9 L 17.8125 9 L 17.8125 8.8125 L 17.6875 8.6875 L 17.59375 8.6875 C 17.59375 8.5875 17.5 8.6 17.5 8.5 L 17.6875 8.5 L 17.6875 8.40625 L 17.8125 8.40625 L 17.8125 8.1875 L 17.6875 8.1875 L 17.59375 8.1875 L 17.5 8.3125 L 17.40625 8.1875 L 17 7.8125 C 16.9 7.7125 16.7875 7.50625 16.6875 7.40625 L 16.8125 7.5 L 16.90625 7.3125 L 16.8125 7.3125 L 17.09375 7 L 17.3125 7.1875 L 17.5 7.1875 L 17.59375 7.3125 L 17.59375 7.5 L 18 7.6875 L 18.09375 7.6875 L 18.40625 8 L 18.5 8.1875 L 18.6875 8.40625 L 18.90625 8.40625 L 19 8.1875 C 19.368247 8.9239948 19.564518 9.8460677 19.59375 10.6875 L 20.09375 10.6875 L 20.09375 10.59375 L 19.6875 10.59375 C 19.648423 9.796952 19.453479 9.0217784 19.1875 8.3125 C 19.1875 8.2125 19.09375 8.09375 19.09375 8.09375 L 19.09375 8 L 19.1875 8 L 19.1875 7.90625 L 18.6875 7.09375 L 18.59375 7.09375 L 17.8125 6.1875 L 18.3125 5.6875 C 19.661014 7.0493988 20.5 8.928125 20.5 11 C 20.5 15.046707 17.184546 18.413211 13.15625 18.5 C 13.169063 18.43249 13.17675 18.3985 13.1875 18.3125 C 13.1875 18.1125 13.3125 14.19375 13.3125 14.09375 C 13.0125 14.19375 12.6875 14.39375 12.6875 14.59375 C 12.6875 14.69375 12.8125 18.0125 12.8125 18.3125 C 12.82325 18.3985 12.830937 18.43249 12.84375 18.5 C 9.8702106 18.435936 7.273967 16.592148 6.125 14 L 6.3125 14 L 6.40625 14 L 6.4375 14.0625 L 6.3125 14 L 6.40625 14.09375 L 6.4375 14.09375 L 6.5 14.1875 L 6.59375 14.40625 L 6.6875 14.40625 L 7 14.90625 L 7.1875 14.90625 L 7.1875 14.6875 L 7.3125 14.8125 L 7.40625 15 L 7.6875 15.09375 C 7.8875 15.29375 7.9875 15.4875 8.1875 15.6875 L 7.90625 16 L 8 16 L 8.40625 15.6875 L 8.59375 15.5 L 8.8125 15.6875 L 9.1875 15.6875 L 9.40625 15.5 L 9.59375 15.5 L 9.8125 15.5 L 9.90625 15.40625 L 9.90625 15.3125 L 9.8125 15.1875 L 9.6875 14.90625 L 9.59375 14.8125 L 9.5 14.59375 L 9.59375 14.5 C 10.39375 15.3 11.49375 15.80625 12.59375 15.90625 L 12.59375 15.8125 C 11.49375 15.7125 10.4875 15.20625 9.6875 14.40625 L 10.8125 13.3125 C 11.1125 13.6125 11.4125 13.8 11.8125 14 L 11.8125 13.90625 C 11.5125 13.70625 11.10625 13.5125 10.90625 13.3125 L 10.96875 13.25 C 10.49705 12.759772 10.19056 12.177672 10.09375 11.5 L 10.1875 11.5 L 10.40625 11.6875 L 10.5 11.8125 L 10.59375 11.8125 L 10.8125 11.90625 L 10.8125 12 L 10.90625 12.09375 L 11 12.1875 L 11 12.09375 L 11 12 L 11.09375 11.90625 L 11.1875 11.90625 L 11.3125 12 L 11.40625 12.1875 L 11.5 12.1875 L 11.59375 12.09375 L 11.59375 11.90625 L 11.6875 11.90625 L 11.8125 11.8125 C 11.738151 11.709792 11.668099 11.574349 11.59375 11.5 L 11.6875 11.40625 L 11.59375 11.40625 L 11.59375 11.4375 C 11.58125 11.4125 11.55 11.40625 11.5 11.40625 L 11.5 11.3125 C 11.4 11.3125 11.2875 11.1875 11.1875 11.1875 L 11.09375 11.1875 L 11 11.1875 L 10.90625 11.3125 L 10.8125 11.1875 L 10.90625 11.09375 L 11 11.09375 C 10.7 10.79375 10.4125 10.49375 10.3125 10.09375 C 10.2125 9.79375 10.1875 9.6125 10.1875 9.3125 L 10 9.40625 L 9.9375 9.40625 C 9.9255 9.43625 9.91625 9.47 9.90625 9.5 L 9.8125 9.5 L 9.6875 9.59375 L 9.8125 9.59375 L 9.90625 9.59375 L 9.90625 9.6875 L 9.59375 9.6875 L 9.40625 9.8125 L 9.1875 9.8125 L 9.09375 10 L 8.90625 10.40625 L 8.90625 10.5 L 8.6875 10.6875 L 8.6875 10.90625 L 8 10.90625 C 8 9.60625 8.50625 8.4 9.40625 7.5 L 10.4375 8.53125 C 10.465356 8.487372 10.469231 8.4370192 10.5 8.40625 L 9.5 7.40625 C 10.3 6.60625 11.2125 6.2 12.3125 6 L 12.3125 5.90625 C 11.2125 6.00625 10.20625 6.5125 9.40625 7.3125 L 9.1875 7 C 9.1875 7 9.19375 7.09375 9.09375 7.09375 L 9.3125 7.3125 C 8.4125 8.2125 7.90625 9.5125 7.90625 10.8125 L 6.40625 10.8125 C 6.40625 9.1125 7.1125 7.3875 8.3125 6.1875 C 8.7125 5.8875 9.00625 5.6125 9.40625 5.3125 C 9.40625 5.2125 9.5 5.19375 9.5 5.09375 C 9 5.39375 8.5875 5.69375 8.1875 6.09375 L 7.75 5.6875 C 8.9036614 4.5568316 10.413333 3.7754167 12.09375 3.59375 L 12 2.09375 C 7.5 2.59375 4 6.4 4 11 C 4 16 8 20 13 20 C 18 20 22 16 22 11 C 22 6.3 18.40625 2.5 13.90625 2 z M 8.3125 6.1875 L 8.6875 6.59375 L 8.8125 6.59375 L 8.90625 6.59375 L 8.3125 6.1875 z M 10.4375 8.53125 C 10.374824 8.6299755 10.3125 8.7432692 10.3125 8.8125 C 10.372947 8.7405488 10.428049 8.6657012 10.5 8.59375 L 10.4375 8.53125 z M 10.3125 8.8125 C 10.1125 9.0125 10.00625 9.20625 9.90625 9.40625 L 9.9375 9.40625 C 10.01672 9.2082012 10.146118 9.0105488 10.3125 8.8125 z M 11.8125 11.8125 C 11.9125 12.0125 11.99375 12.0875 12.09375 12.1875 L 12 12 L 12.09375 11.90625 L 12.1875 11.90625 L 12.3125 11.90625 L 12.40625 11.90625 L 12.40625 11.6875 L 12.09375 11.59375 L 12 11.59375 L 11.90625 11.6875 L 11.90625 11.90625 C 11.880599 11.880599 11.838151 11.847934 11.8125 11.8125 z M 12.09375 12.1875 L 12.0625 12.21875 C 12.245427 12.386728 12.410823 12.502287 12.59375 12.59375 L 12.59375 12.5 C 12.39375 12.4 12.19375 12.2875 12.09375 12.1875 z M 12.0625 12.21875 C 12.045427 12.203072 12.017073 12.204573 12 12.1875 L 10.96875 13.25 C 10.984291 13.266152 10.984052 13.296552 11 13.3125 L 12.0625 12.21875 z M 11.40625 12.1875 L 11.1875 12.1875 L 11.3125 12.40625 L 11.40625 12.40625 L 11.40625 12.3125 L 11.40625 12.1875 z M 8.40625 15.6875 C 8.90625 16.3875 9.60625 16.7875 10.40625 17.1875 C 11.10625 17.4875 11.79375 17.6875 12.59375 17.6875 L 12.59375 17.59375 C 10.99375 17.39375 9.50625 16.7875 8.40625 15.6875 z M 17.8125 8.1875 L 17.6875 7.90625 L 17.59375 7.90625 L 17.6875 8.09375 L 17.8125 8.1875 z M 17.6875 15.3125 L 17.8125 15.4375 C 18.931035 14.164812 19.591261 12.638551 19.6875 10.90625 L 19.59375 10.90625 C 19.56258 11.650967 19.367565 12.457325 19.09375 13.1875 C 18.79375 13.9875 18.2875 14.7125 17.6875 15.3125 z M 17.8125 15.4375 C 17.783572 15.470414 17.7483 15.498704 17.71875 15.53125 L 18 15.8125 C 18 15.8125 17.99375 15.6875 18.09375 15.6875 L 17.8125 15.4375 z M 17.71875 15.53125 L 17.59375 15.40625 L 17.59375 15.5 L 17.6875 15.59375 C 17.702765 15.577212 17.703647 15.547885 17.71875 15.53125 z M 17.4375 15.53125 C 17.195026 15.758582 16.961131 15.970679 16.6875 16.15625 L 16.6875 16.1875 L 16.5 16.40625 L 16.59375 16.5 C 16.957483 16.226661 17.320411 15.960839 17.59375 15.6875 L 17.4375 15.53125 z M 7 2.09375 C 2.3 2.79375 2.59375 8.59375 2.59375 8.59375 C 2.09375 7.49375 2.59375 4.90625 2.59375 4.90625 C 0.49375 6.90625 2.09375 12.3125 2.09375 12.3125 C 0.89375 10.8125 0.6875 7.99375 0.6875 8.09375 C -0.9125 11.59375 2.90625 16.3125 2.90625 16.3125 C 1.80625 16.0125 0.09375 13.5875 0.09375 13.6875 C 0.29375 16.3875 2.5 18.4125 5.5 19.3125 C 4.5 19.6125 1.6875 18.49375 1.6875 18.59375 C 3.3875 21.69375 8.6875 21.3125 8.6875 21.3125 C 7.5875 21.7125 3.99375 21.6875 4.09375 21.6875 C 5.19375 22.4875 7 23 8 23 C 8.1886767 23 8.3581564 22.982417 8.53125 22.96875 C 7.9933594 23.478516 7.6875 23.90625 7.6875 23.90625 C 7.7875 24.00625 9.40625 24.90625 9.40625 24.90625 C 10.346635 23.025481 11.959822 22.180286 13 21.90625 C 14.062032 22.174282 15.725684 23.012288 16.59375 24.90625 C 16.59375 24.90625 18.2125 24.00625 18.3125 23.90625 C 18.3125 23.90625 18.006641 23.478516 17.46875 22.96875 C 17.641844 22.982417 17.811323 23 18 23 C 19 23 20.80625 22.4875 21.90625 21.6875 C 22.00625 21.6875 18.4125 21.7125 17.3125 21.3125 C 17.3125 21.3125 22.6125 21.69375 24.3125 18.59375 C 24.3125 18.49375 21.5 19.6125 20.5 19.3125 C 23.5 18.4125 25.70625 16.3875 25.90625 13.6875 C 25.90625 13.5875 24.19375 16.0125 23.09375 16.3125 C 23.09375 16.3125 26.9125 11.59375 25.3125 8.09375 C 25.3125 7.99375 25.10625 10.8125 23.90625 12.3125 C 23.90625 12.3125 25.50625 6.90625 23.40625 4.90625 C 23.40625 4.90625 23.90625 7.49375 23.40625 8.59375 C 23.40625 8.59375 23.7 2.79375 19 2.09375 C 19 2.09375 23 5.39375 23 11.59375 C 23 18.59375 16.9 21 13 21 C 9.1 21 3 18.59375 3 11.59375 C 3 5.39375 7 2.09375 7 2.09375 z M 13.6875 3.59375 L 13.6875 4.5 C 13.7875 4.5 13.9 4.49375 14 4.59375 C 14.9 4.79375 15.3125 5.3125 15.3125 5.8125 C 15.3125 6.3125 14.90625 6.8875 13.90625 7.1875 C 13.80625 7.1875 13.69375 7.3125 13.59375 7.3125 L 13.40625 7.40625 C 13.20625 7.40625 13.00625 7.5 12.90625 7.5 C 12.80625 7.5 12.6 7.59375 12.5 7.59375 L 12.1875 7.6875 C 11.9875 7.7875 11.7875 7.80625 11.6875 7.90625 C 10.6875 8.40625 10.3 9.19375 10.5 10.09375 C 10.6 10.69375 11.0125 11.1125 11.8125 11.3125 C 12.0125 11.4125 12.2125 11.4 12.3125 11.5 L 12.3125 10.40625 C 12.1125 10.30625 11.9125 10.2 11.8125 10 C 11.5125 9.6 11.5125 8.9875 12.3125 8.6875 C 12.7125 8.5875 13.00625 8.50625 13.40625 8.40625 L 13.5 8.40625 C 14 8.30625 14.5 8.10625 15 7.90625 C 15.9 7.50625 16.6 6.8875 16.5 5.6875 C 16.5 4.8875 15.5875 3.79375 13.6875 3.59375 z M 12.3125 3.8125 C 11.8125 3.9125 11.50625 4.0875 11.40625 4.1875 C 11.10625 4.2875 10.6875 4.3125 10.1875 4.8125 C 10.0875 4.8125 9.8875 4.9875 9.6875 5.1875 C 9.5875 5.3875 9.6 5.70625 9.5 5.90625 C 9.4 6.10625 9.40625 6.3125 9.40625 6.3125 C 9.40625 6.4125 9.3125 6.4 9.3125 6.5 C 9.1125 6.7 8.8875 6.8125 8.6875 6.8125 C 8.7212838 6.8293919 8.7749374 6.8368256 8.8125 6.84375 L 9 7.09375 L 9 6.90625 L 9 6.84375 C 9.0948538 6.8350135 9.131745 6.819969 9.15625 6.8125 C 9.2945086 6.5763393 9.4280415 6.40625 9.5 6.40625 C 9.6 6.40625 9.7875 6.3875 10.1875 6.1875 C 10.5875 5.9875 11.3 5.6125 11.5 5.3125 C 11.7 5.0125 12.0125 4.7875 12.3125 4.6875 L 12.3125 3.8125 z M 9.15625 6.8125 C 9.1023719 6.9045296 9.0560831 6.9815838 9 7.09375 C 9.1 6.89375 9.1875 6.8125 9.1875 6.8125 C 9.1875 6.8125 9.1614417 6.8109176 9.15625 6.8125 z M 10.5 5 L 10.8125 5 L 10.6875 5.09375 L 10.40625 5.5 L 10.1875 5.5 L 10.1875 5.3125 L 10.5 5 z M 7.6875 5.75 L 8.09375 6.1875 C 7.59375 6.7875 7.1125 7.5125 6.8125 8.3125 C 6.4125 9.1125 6.1875 10.00625 6.1875 10.90625 L 5.5 10.90625 C 5.5249088 8.8999157 6.3583765 7.083681 7.6875 5.75 z M 13.6875 5.8125 L 13.6875 5.90625 L 14.90625 6.1875 C 14.90625 6.2875 14.9 6.2875 15 6.1875 C 14.6 5.9875 14.1875 5.9125 13.6875 5.8125 z M 16.59375 6.8125 L 16.6875 6.90625 L 16.59375 6.8125 z M 16.5 7.5 C 16.6 7.6 16.7125 7.70625 16.8125 7.90625 C 17.0125 7.90625 17 7.99375 17 8.09375 L 17.09375 8.09375 L 17.3125 8.40625 C 17.3125 8.40625 17.30625 8.5 17.40625 8.5 L 17.40625 8.59375 L 17.3125 8.6875 L 17.3125 8.59375 L 17.1875 8.59375 L 17.1875 8.6875 L 17.09375 8.8125 L 17.3125 8.90625 L 17.40625 9 L 17.5 9 L 17.5 9.09375 L 17.59375 9.09375 L 17.59375 9.3125 L 17.6875 9.3125 C 17.6875 9.4125 17.8125 9.5875 17.8125 9.6875 L 17.6875 9.8125 L 17.59375 9.90625 L 17.5 10.09375 L 17.3125 10.1875 L 17.1875 10.09375 L 17.3125 9.8125 L 17.40625 9.6875 L 17.09375 9.5 L 16.90625 9.59375 L 16.8125 9.90625 L 16.59375 9.8125 L 16.5 9.6875 L 16.3125 9.5 L 16.09375 9.40625 L 15.90625 9.40625 C 15.862854 9.3194575 15.783466 9.2430425 15.71875 9.15625 L 15.59375 9.09375 L 15.59375 9.1875 L 15.6875 9.1875 L 15.59375 9.3125 L 15.59375 9.1875 L 15.34375 9.4375 L 15.3125 9.40625 L 15.40625 9.3125 L 15.40625 9.1875 L 15.5 9.09375 L 15.40625 8.90625 L 15.1875 9 L 15.1875 9.09375 L 15.09375 9.09375 L 15 9.09375 L 15 9 L 15.3125 8.6875 C 15.4125 8.5875 15.4 8.6875 15.5 8.6875 L 15.59375 8.59375 C 15.607133 8.6071329 15.611617 8.6397644 15.625 8.65625 L 16.5 7.5 z M 15.625 8.65625 L 15.5 8.8125 C 15.556604 8.9257075 15.634338 9.0430425 15.71875 9.15625 L 15.8125 9.1875 L 15.90625 9 C 15.819633 8.9133829 15.711617 8.7629482 15.625 8.65625 z M 15.5 8.6875 L 15.3125 8.6875 L 15.40625 8.8125 L 15.5 8.6875 z M 16.59375 9.8125 L 16.6875 9.8125 L 16.8125 9.8125 L 16.8125 9.6875 L 16.6875 9.6875 L 16.59375 9.6875 L 16.59375 9.8125 z M 17.40625 7.59375 L 17.40625 7.6875 L 17.5 7.6875 L 17.40625 7.59375 z M 17.5 7.6875 L 17.59375 7.8125 L 17.6875 7.8125 L 17.5 7.6875 z M 16.6875 8.1875 L 16.59375 8.3125 L 16.6875 8.3125 L 16.6875 8.40625 L 16.8125 8.5 L 16.90625 8.40625 L 16.8125 8.40625 L 16.8125 8.3125 L 16.8125 8.1875 L 16.6875 8.1875 z M 16.59375 8.3125 L 16.5 8.3125 L 16.5 8.40625 L 16.59375 8.40625 L 16.59375 8.3125 z M 17.90625 8.3125 L 17.90625 8.5 L 18 8.5 L 17.90625 8.3125 z M 14.8125 8.5 L 14.6875 8.59375 L 14.59375 8.6875 L 14.6875 8.6875 L 14.8125 8.59375 L 14.8125 8.5 z M 14.59375 8.6875 L 14.5 8.8125 L 14.5 8.90625 L 14.59375 8.90625 L 14.6875 8.90625 L 14.6875 8.8125 L 14.59375 8.8125 L 14.59375 8.6875 z M 16.5 8.5 L 16.5 8.6875 L 16.40625 8.6875 L 16.40625 8.8125 L 16.40625 8.90625 L 16.5 8.8125 L 16.59375 8.8125 L 16.6875 8.6875 L 16.59375 8.6875 L 16.5 8.5 z M 18 8.59375 L 18 8.6875 L 18 8.8125 L 18 9 L 18.09375 9.1875 L 18.09375 9.40625 L 18.1875 9.40625 L 18.1875 9.1875 L 18.09375 9.09375 L 18.09375 8.90625 L 18 8.59375 z M 13.40625 8.6875 C 13.30625 8.6875 12.79375 8.90625 12.59375 8.90625 C 12.59375 9.00625 12.6875 13 12.6875 13 C 12.6875 13 12.8 12.90625 13 12.90625 C 13.1 12.90625 13.2125 12.8125 13.3125 12.8125 C 13.3125 12.8125 13.40625 8.7875 13.40625 8.6875 z M 12.1875 8.90625 L 12.09375 9 L 12.1875 9.3125 C 12.0875 9.4125 12.00625 9.5 11.90625 9.5 C 11.90625 9.6 11.9 9.80625 12 9.90625 C 12 10.00625 12.09375 10 12.09375 10 L 12.3125 9.90625 L 12.3125 9.1875 L 12.1875 9.1875 L 12.1875 9.09375 L 12.1875 9 L 12.1875 8.90625 z M 16.09375 8.90625 L 16 9 L 16.09375 9 L 16.1875 9 L 16.3125 8.90625 L 16.09375 8.90625 z M 17.875 9.53125 L 18 9.59375 L 17.90625 9.59375 C 17.899939 9.5700185 17.883439 9.55711 17.875 9.53125 z M 9.5 9.59375 L 9.5 9.6875 L 9.59375 9.59375 L 9.5 9.59375 z M 17.59375 10.1875 L 17.6875 10.1875 L 17.8125 10.1875 C 17.8125 10.3875 17.90625 10.70625 17.90625 10.90625 L 16.6875 10.90625 L 16.6875 10.8125 L 16.8125 10.8125 L 16.90625 10.6875 L 17.09375 10.6875 L 17.09375 10.59375 L 17 10.40625 L 17.1875 10.3125 L 17.5 10.3125 L 17.59375 10.1875 z M 17.6875 10.1875 L 17.59375 10.40625 L 17.59375 10.5 L 17.6875 10.3125 L 17.6875 10.1875 z M 9.1875 10.40625 L 9.5 10.5 L 9.59375 10.59375 L 9.59375 11 L 9.1875 11 L 9 10.8125 L 9 10.5 L 9.1875 10.40625 z M 13.59375 10.90625 L 13.59375 11.90625 C 13.99375 12.10625 14.1875 12.2 14.1875 12.5 C 14.1875 12.7 13.99375 12.89375 13.59375 13.09375 L 13.5 13.09375 C 13.4 13.09375 13.2875 13.1875 13.1875 13.1875 C 13.0875 13.1875 13.00625 13.3125 12.90625 13.3125 C 12.80625 13.3125 12.69375 13.40625 12.59375 13.40625 C 11.89375 13.70625 11.90625 14.19375 11.90625 14.59375 C 11.90625 14.89375 12.2 15.1125 12.5 15.3125 L 12.5 14.59375 C 12.5 14.39375 12.5875 14.2875 12.6875 14.1875 C 12.7875 14.0875 12.9875 14.00625 13.1875 13.90625 C 13.4875 13.80625 13.8125 13.7 14.3125 13.5 C 15.4125 13.1 15.39375 12.00625 14.59375 11.40625 C 14.29375 11.20625 13.89375 11.00625 13.59375 10.90625 z M 5.5 11 L 6.1875 11 C 6.1875 11.7 6.3 12.4 6.5 13 L 6.40625 13.09375 L 6.09375 12.90625 L 6.09375 13 L 6 13 L 5.90625 13 L 5.90625 13.09375 L 5.8125 13.09375 C 5.615168 12.428025 5.5 11.724303 5.5 11 z M 6.40625 11 L 8 11 L 8.6875 11 L 8.59375 11.1875 L 8.5 11.1875 L 8.40625 11.59375 L 8.5 11.40625 L 8.6875 11.40625 L 8.8125 11.3125 L 8.8125 11.09375 L 9 11.09375 L 9.09375 11.09375 L 9.1875 11.1875 L 9.1875 11.09375 L 9.59375 11.09375 L 9.59375 11.40625 L 9.5 11.40625 L 9.40625 11.59375 L 9.5 11.59375 L 9.59375 11.5 C 9.69375 12.2 10 12.90625 10.5 13.40625 L 9.5 14.40625 L 9.1875 14.09375 L 9.3125 13.90625 L 9.3125 13.6875 L 9.09375 13.40625 L 9.09375 13.09375 L 9 13 L 9 12.90625 L 8.8125 12.59375 L 8.8125 12.5 L 8.6875 12.3125 L 8.8125 12.3125 L 8.8125 12.1875 L 8.6875 12 L 8.5 11.90625 L 8.5 11.8125 L 8.46875 11.75 L 8.40625 11.90625 L 8.1875 11.90625 L 8.09375 11.8125 L 8 11.8125 L 8 11.6875 C 8.1 11.4875 8 11.3 8 11 C 7.9 11.2 7.90625 11.5125 7.90625 11.8125 L 7.8125 11.6875 L 7.6875 11.8125 L 7.6875 11.90625 L 7.40625 12.3125 L 7.3125 12.3125 L 7.3125 13 L 7.09375 13 L 7 13 L 6.90625 13 L 6.6875 13 C 6.4875 12.4 6.40625 11.7 6.40625 11 z M 8.46875 11.75 L 8.5 11.6875 L 8.40625 11.59375 L 8.46875 11.75 z M 9.1875 11.1875 L 9.3125 11.40625 L 9.3125 11.3125 L 9.1875 11.1875 z M 9.3125 11.40625 L 9.1875 11.5 L 9.1875 11.59375 L 9.1875 11.6875 L 9.3125 11.40625 z M 9.1875 11.6875 L 9.1875 12 L 9.3125 11.90625 L 9.1875 11.6875 z M 9.1875 12 L 9.1875 12.09375 L 9.09375 12.1875 L 9.1875 12.3125 L 9.3125 12.3125 L 9.3125 12.1875 L 9.3125 12.09375 L 9.3125 12 L 9.1875 12 z M 9.1875 12.09375 L 9.09375 11.90625 L 9.09375 12 L 9.09375 12.09375 L 9.1875 12.09375 z M 17.59375 11.59375 L 17.40625 11.6875 L 17.59375 11.8125 L 17.59375 11.59375 z M 13.5 12.1875 L 13.5 12.40625 C 13.6 12.50625 13.59375 12.49375 13.59375 12.59375 C 13.89375 12.59375 13.90625 12.5 13.90625 12.5 C 13.90625 12.4 13.7 12.2875 13.5 12.1875 z M 16.0625 12.71875 L 16 12.90625 L 15.90625 12.90625 L 15.90625 13 L 15.8125 13.09375 L 15.6875 13.09375 L 15.59375 13.1875 L 15.40625 13.1875 L 15.5 13.09375 L 15.59375 13.09375 L 15.6875 13.09375 L 15.8125 13 L 15.8125 12.90625 L 15.90625 12.90625 L 16.0625 12.71875 z M 6.0625 13.8125 L 6.09375 13.8125 L 6.09375 13.90625 C 6.0808266 13.876025 6.0750336 13.842919 6.0625 13.8125 z M 8.1875 15.09375 L 8.5 15.3125 L 8.3125 15.59375 C 8.2125 15.49375 8.1 15.3875 8 15.1875 L 8.09375 15.1875 L 8.1875 15.09375 z M 13.5 15.09375 L 13.5 15.59375 C 13.9 15.79375 14.3 16.0875 14.5 16.6875 C 14.5 15.7875 14 15.39375 13.5 15.09375 z"/>
</svg>
