<?xml version="1.0" encoding="utf-8"?>
<!-- Generator: Adobe Illustrator 24.2.0, SVG Export Plug-In . SVG Version: 6.00 Build 0)  -->
<svg version="1.1" id="Layer_1" xmlns="http://www.w3.org/2000/svg" xmlns:xlink="http://www.w3.org/1999/xlink" x="0px" y="0px"
	 viewBox="0 0 336.2 353.4" style="enable-background:new 0 0 336.2 353.4;" xml:space="preserve">
<style type="text/css">
	.st0{fill:#010101;}
	.st1{fill:#231F20;}
	.st2{font-family:'Avenir-Book';}
	.st3{font-size:68.5631px;}
	.st4{font-size:41.9277px;}
</style>
<g id="Layer_2_1_">
	<g id="Layer_1-2">
		<g id="Layer_2-2">
			<g id="Layer_1-2-2">
				<path class="st0" d="M231.2,95.5c2.2,0,4.4,0,6.7,0c0.6,0,1.1-0.3,1.5-0.7c6.3-7.5,17.5-8.5,24.9-2.2c0,0,0,0,0,0
					c2.1,1.7,3.7,3.9,4.8,6.4c4,8.9-0.1,19.3-9,23.3c-7.1,3.1-15.4,1.3-20.5-4.5c-0.6-0.7-1.5-1.1-2.4-1.1c-4.2,0-8.3,0-12.4,0
					c-0.9,0-1.3,0.2-1.4,1.1c-1.5,7.7-4.5,15.1-8.9,21.6c-0.5,0.5-0.5,1.2,0,1.7c0.1,0.1,0.1,0.1,0.2,0.2c3.1,3,6.1,6,9.1,9.1
					c0.5,0.5,1.2,0.8,1.9,0.7c12.9-1.2,22.8,12.3,17.7,24.2c-3.6,9-13.9,13.4-22.9,9.8c-7.1-2.9-11.5-10-11-17.6
					c0.1-0.8-0.2-1.7-0.8-2.2c-3-3-6.1-6-9.1-9c-0.3-0.5-1-0.7-1.6-0.4c-0.1,0-0.2,0.1-0.2,0.2c-6.5,4.5-13.9,7.5-21.6,9
					c-0.8,0.1-1.1,0.4-1.1,1.2c0,4.3,0,8.7,0,13c-0.1,0.7,0.2,1.4,0.8,1.8c5.9,5,7.9,13.2,4.9,20.3c-3.8,9-14.2,13.2-23.2,9.4
					c-4.6-2-8.2-5.8-9.8-10.6c-2.4-6.8-0.3-14.3,5.1-19c0.7-0.5,1-1.3,1-2.1c0-4.3,0-8.6,0-12.9c0-0.9-0.5-1.1-1.2-1.2
					c-6.8-1.3-13.3-3.9-19.3-7.5c-0.8-0.5-1.7-1-2.5-1.6c-0.5-0.4-0.9-0.4-1.4,0.1c-3.2,3.2-6.4,6.4-9.6,9.7
					c-0.3,0.4-0.4,0.8-0.4,1.3c0.8,11.9-9,21-20.7,19c-6.5-1.1-11-5.1-13.4-11.2c-3.5-8.9,1.2-19,10.5-22.7c2.4-0.9,4.9-1.3,7.4-1
					c0.7,0.1,1.4-0.1,1.9-0.7c3-3.1,6.1-6.1,9.2-9.2c0.5-0.3,0.6-1,0.3-1.5c0-0.1-0.1-0.1-0.1-0.2c-4.5-6.5-7.5-13.9-9-21.7
					c0-0.7-0.6-1.2-1.2-1.2c-0.1,0-0.1,0-0.2,0c-4.4,0-8.7,0-13.1,0.1c-0.6,0-1.1,0.3-1.5,0.8c-6.2,7.5-17.4,8.5-24.9,2.3
					c-7.5-6.2-8.5-17.4-2.3-24.9c2.6-3.1,6.1-5.2,10.1-6c6.9-1.3,12.6,0.7,17.2,6c0.4,0.4,0.9,0.7,1.5,0.7c4.4,0,8.7,0,13.1,0
					c0.6,0.1,1.2-0.3,1.3-0.9c0-0.1,0-0.1,0-0.2c1.5-7.8,4.6-15.2,9.1-21.8c0.5-0.7,0.4-1-0.2-1.5c-3.2-3.1-6.3-6.3-9.5-9.4
					c-0.4-0.4-0.9-0.6-1.5-0.5C94,62.1,85.3,55,84.4,45.3c-0.2-2.2,0-4.4,0.6-6.4c1.6-6.8,7.3-11.8,14.2-12.7
					c7.4-1.2,13.4,1.6,17.6,7.9c2.2,3.3,3.2,7.2,2.8,11.2c0,0.5,0.2,1,0.5,1.4c3.2,3.2,6.4,6.4,9.6,9.6c0.3,0.4,0.9,0.5,1.3,0.2
					c0,0,0.1-0.1,0.1-0.1c5.1-3.5,10.8-6.2,16.8-7.9c1.6-0.5,3.3-0.8,4.9-1.2c0.8-0.2,1.2-0.5,1.2-1.4c0-4.3,0-8.6,0-12.9
					c0-0.7-0.3-1.4-0.8-1.8c-5.4-4.8-7.5-10.8-5.7-17.8S153.9,2,160.9,0.4c9.5-2.1,18.9,3.9,21,13.4c1.4,6.4-0.9,13.1-5.9,17.3
					c-0.4,0.4-0.7,0.9-0.7,1.5c-0.1,4.3,0,8.7-0.1,13c0,1,0.3,1.3,1.2,1.5c7.7,1.5,15.1,4.5,21.6,8.9c0.8,0.5,1.2,0.5,1.8-0.2
					c3-3.1,6.1-6.2,9.2-9.2c0.5-0.5,0.8-1.2,0.7-1.9c-1.2-12.2,11.1-22,22.8-18.3c9.3,2.9,14.5,12.9,11.5,22.2
					c-2.5,7.8-9.9,12.9-18.1,12.3c-0.7-0.1-1.4,0.1-1.9,0.7c-3,3.1-6.1,6.1-9.2,9.2c-0.5,0.4-0.7,1.1-0.3,1.7c0,0.1,0.1,0.1,0.1,0.2
					c4.4,6.5,7.4,13.8,8.9,21.5c0.2,1,0.5,1.3,1.5,1.2C226.9,95.4,229.1,95.5,231.2,95.5L231.2,95.5z M198.5,77.2
					c0.4-0.4,0.7-0.7,1-1c6.5-6.5,13.1-13,19.5-19.6c2-2.1,3.9-3.2,7-2.5c4.3,0.8,8.5-1.7,10.5-5.7c1.9-3.9,1.3-8.6-1.7-11.8
					c-3-3.2-7.7-4.3-11.8-2.7c-5,2-7.5,6.7-6.4,12.2c0.4,1.5-0.1,3.1-1.2,4.1c-0.7,0.6-1.3,1.3-1.9,1.9
					c-6.4,6.4-12.9,12.8-19.2,19.3c-0.7,0.7-1,0.7-1.7,0c-1.1-1.2-2.2-2.3-3.4-3.4c-0.6-0.5-0.6-0.9,0-1.4c1.2-1.2,2.4-2.4,3.6-3.6
					c0.7-0.7,0.8-1-0.1-1.6c-6.4-4-13.6-6.6-21.1-7.6c-2.4-0.3-3.6-1.6-3.6-4.1c0-6.2,0-12.4,0-18.5c-0.2-1.8,0.8-3.6,2.4-4.5
					c3.6-2.2,5.4-6.4,4.6-10.4c-0.7-4.4-4-7.9-8.4-8.7c-5.7-1.2-11.3,2.5-12.5,8.2c0,0,0,0.1,0,0.1c-0.9,4.3,1,8.7,4.7,11.1
					c1.3,0.7,2.1,2,2.1,3.5c0,6.5,0,13,0,19.5c0,2.6-1,3.7-3.6,4.1c-7.5,1-14.6,3.6-21,7.7c-0.8,0.5-1,0.9-0.2,1.6
					c1.3,1.2,2.5,2.4,3.7,3.7c0.2,0.3,0.3,0.7,0.2,1.1c-1.4,1.5-2.9,3-4.5,4.6c-0.4-0.4-0.7-0.6-0.9-0.9
					c-6.8-6.8-13.5-13.6-20.4-20.3c-1.7-1.7-2.5-3.3-2-5.8c0.9-4.6-1.5-9.2-5.8-11c-4.3-2-9.4-0.9-12.6,2.6
					c-3.8,4.4-3.3,11.1,1.1,14.9c2.6,2.2,6,3.1,9.3,2.3c1.6-0.4,3.2,0.1,4.3,1.3c7,7.1,14.1,14.1,21.1,21.1c0.2,0.2,0.5,0.5,0.8,0.9
					c-1.5,1.5-3,2.9-4.4,4.4c-0.5,0.5-0.8,0.2-1.2-0.1c-1.2-1.2-2.4-2.4-3.6-3.6c-1-1-1-1-1.7,0.2c-4,6.4-6.6,13.6-7.6,21.1
					c-0.1,1.9-1.6,3.4-3.6,3.4c-0.1,0-0.1,0-0.2,0c-6.5,0.1-13,0-19.6,0.1c-1.5,0-2.8-0.7-3.5-2c-3.1-5-9.6-6.5-14.6-3.5
					s-6.5,9.6-3.5,14.6c1.8,2.9,4.9,4.8,8.3,5c3.9,0.3,7.7-1.7,9.7-5.1c0.6-1.2,1.8-2,3.2-2h20.2c1.8,0,3.3,1.3,3.5,3.1
					c0.1,0.9,0.2,1.8,0.4,2.7c1.2,6.8,3.7,13.2,7.4,19c0.4,0.7,0.7,0.7,1.3,0.1c1.2-1.3,2.5-2.6,3.8-3.8c0.2-0.2,0.9-0.4,1-0.2
					c1.6,1.4,3.1,3,4.7,4.6c-0.7,0.6-1.2,1-1.7,1.5L108.6,157c-1.2,1.2-2.6,1.9-4.4,1.4c-0.4-0.1-0.7-0.2-1.1-0.2
					c-4.2-0.6-8.3,1.4-10.3,5.1c-2.2,3.6-2,8.2,0.6,11.6c2.6,3.4,6.9,4.9,11,4c5.9-1.4,9.2-6.7,7.9-12.9c-0.3-1.2,0-2.5,0.9-3.4
					c7.3-7.3,14.6-14.6,21.8-21.9c0.4-0.4,0.8-0.5,1.2,0c1.3,1.3,2.5,2.5,3.7,3.7c0.6,0.5,0.4,0.9-0.1,1.4c-1.2,1.2-2.4,2.3-3.5,3.5
					c-1,1-1,1,0.2,1.7c6.4,4,13.6,6.6,21.1,7.6c1.9,0.1,3.3,1.6,3.3,3.5c0,6.5,0,13,0,19.5c0.1,1.7-0.8,3.3-2.3,4.1
					c-4.9,3.2-6.2,9.8-3,14.7s9.8,6.2,14.7,3c4.9-3.2,6.2-9.8,3-14.7c0,0,0,0,0,0c-0.8-1.2-1.9-2.3-3.1-3.1
					c-1.5-0.8-2.4-2.4-2.2-4.1c0.1-2.2,0.1-4.4,0.1-6.7c0-4.2-0.1-8.4,0-12.7c0-1.7,1.2-3.2,2.9-3.5c1.6-0.3,3.1-0.5,4.6-0.8
					c6.1-1.3,11.9-3.7,17.2-7c0.8-0.5,0.7-0.8,0.1-1.4c-1.3-1.2-2.5-2.5-3.7-3.8c-0.2-0.2-0.4-0.9-0.2-1.1c1.4-1.5,2.9-3,4.5-4.6
					c0.4,0.4,0.7,0.7,1,1c6.6,6.5,13,13.1,19.7,19.5c2.1,2,3.1,3.9,2.5,7c-1,5.6,3.4,10.8,9,11.4c6.1,0.6,11.4-3.4,12-9.2
					c0.7-5.8-3.5-11-9.2-11.7c-1.2-0.1-2.4-0.1-3.6,0.2c-1.6,0.4-3.3-0.1-4.4-1.3c-7-7-14-14-21-21c-0.2-0.2-0.5-0.5-0.8-0.9
					c1.5-1.5,3-3,4.5-4.5c0.2-0.2,0.8,0,1.1,0.2c1.2,1.2,2.5,2.4,3.7,3.7c0.6,0.7,1,0.7,1.5-0.2c4-6.4,6.6-13.6,7.6-21.1
					c0.4-2.4,1.6-3.6,4.1-3.6c6.2,0,12.4,0,18.7,0c1.8-0.1,3.5,0.8,4.4,2.4c3.3,4.8,9.9,6.1,14.7,2.8c4.8-3.3,6.1-9.9,2.8-14.7
					c-3.3-4.8-9.8-6.1-14.7-2.8c-1.2,0.8-2.2,1.9-3,3.1c-0.7,1.3-2.1,2.1-3.6,2.1H221c-2.3,0-3.6-1.2-3.9-3.5
					c-1-7.5-3.6-14.7-7.6-21.1c-0.6-0.9-1-0.9-1.7-0.2c-1.2,1.2-2.4,2.4-3.6,3.6c-0.4,0.4-0.8,0.7-1.2,0.2L198.5,77.2z"/>
				<path class="st0" d="M132.8,92c7.8,0,14.1,6.4,14.1,14.2c0,7.8-6.4,14.1-14.2,14.1c-7.8,0-14.1-6.4-14.1-14.2c0,0,0,0,0-0.1l0,0
					C118.6,98.2,125,91.9,132.8,92z M132.7,99c-3.9,0-7.1,3.2-7.1,7.1c0,3.9,3.2,7.1,7.1,7.1c3.9,0,7.1-3.2,7.1-7.1l0,0
					C139.7,102.2,136.6,99.1,132.7,99L132.7,99z"/>
				<path class="st0" d="M210.4,106.3c-0.1,7.8-6.5,14.1-14.3,14s-14.1-6.5-14-14.3s6.5-14.1,14.3-14c0.1,0,0.1,0,0.2,0
					C204.4,92.2,210.5,98.5,210.4,106.3z M189.2,106.2c0,3.9,3.2,7.1,7.1,7c3.9,0,7.1-3.2,7-7.1c0-3.9-3.2-7.1-7.1-7c0,0,0,0,0,0
					l0,0C192.4,99.1,189.2,102.3,189.2,106.2z"/>
				<path class="st0" d="M150.4,134.3c0-7.8,6.4-14,14.1-14c0.2,0,0.4,0,0.6,0c7.5,0.1,13.6,6.7,13.5,14.5
					c-0.3,7.8-6.9,13.9-14.7,13.6C156.4,148.1,150.4,141.9,150.4,134.3L150.4,134.3z M171.6,134.4c0-3.9-3.2-7.1-7.1-7.1
					c-3.9,0-7.1,3.2-7.1,7.1s3.2,7.1,7.1,7.1l0,0C168.4,141.5,171.6,138.3,171.6,134.4C171.6,134.4,171.6,134.4,171.6,134.4z"/>
				<path class="st0" d="M178.6,77.9c0,7.7-6.3,14-14,14c-0.1,0-0.2,0-0.3,0c-7.9,0-14.1-6.4-14-14.6c0-7.2,6.6-13.6,14-13.6
					c7.7-0.1,14.1,6,14.3,13.7C178.6,77.6,178.6,77.7,178.6,77.9z M171.6,77.8c0-3.9-3.2-7.1-7.1-7.1c-3.9,0-7.1,3.2-7.1,7.1
					c0,3.9,3.2,7.1,7.1,7.1h0.1C168.5,84.9,171.6,81.7,171.6,77.8L171.6,77.8z"/>
			</g>
			<text transform="matrix(1 0 0 1 -2.1827 275.8595)" class="st1 st2 st3">pandemica</text>
			<path d="M306,315.2c-2.6,3.9-2.2,9.2,1,13.4c3.5,4.6,8.6,6.5,14.1,7.4c3,0.5,6.2,0.6,9.3,0.9c1.6,0,3,1.3,3.1,2.9
				c0,0.1,0,0.2,0,0.4c0,1.9-1,3.1-2.9,3.2c-8.9,0.1-17.4-1.2-24.7-6.7c-7.1-5.4-9.9-14.5-6.9-22.2c1.5-3.9,4-7,8.6-7.4
				c2.5-0.2,3.6,0.8,4.1,3.2c0.4,2.5,1.8,3.8,4.1,3.6c2.3-0.2,3.4-1.8,3.3-4.3c0.1-4.6-3.5-8.3-8.1-8.5c-8.7-0.7-16,2.1-21.4,9
				c-2.9,3.7-5.3,7.9-7.9,11.9c-2.4,3.7-4.6,7.7-7.2,11.2c-4.6,6.3-10.7,10.1-18.8,10.1c-2.4,0-3.8-1.1-3.9-3.1
				c-0.1-2,1.1-3.3,3.5-3.4c6.5-0.2,11.2-3.4,14.7-8.6c2.9-4.3,5.5-8.9,8.2-13.3c3.5-5.7,7.1-11.3,12.7-15.2
				c6.5-4.7,14.7-6.5,22.6-5.1c7.9,1.3,13.5,9.4,12.1,17.1c-0.6,4.2-3.7,7.6-7.9,8.4c-4.4,1-7.9-0.5-10.6-3.9L306,315.2z"/>
			<text transform="matrix(1 0 0 1 1.7402 337.2905)" class="st1 st2 st4">second wave</text>
		</g>
	</g>
</g>
</svg>
