<svg xmlns="http://www.w3.org/2000/svg" viewBox="0 0 336.16 353.36"><defs><style>.cls-1{fill:#010101;}.cls-2{font-size:72px;}.cls-2,.cls-3{fill:#231f20;font-family:MyriadPro-Regular, Myriad Pro;}.cls-3{font-size:42.85px;}.cls-4{letter-spacing:-0.01em;}.cls-5{letter-spacing:0em;}.cls-6{letter-spacing:-0.01em;}.cls-7{letter-spacing:-0.01em;}.cls-8{letter-spacing:0em;}</style></defs><g id="Layer_2" data-name="Layer 2"><g id="Layer_1-2" data-name="Layer 1"><g id="Layer_2-2" data-name="Layer 2"><g id="Layer_1-2-2" data-name="Layer 1-2"><path class="cls-1" d="M231.22,95.5c2.25,0,4.45,0,6.69,0a2.09,2.09,0,0,0,1.5-.74,17.7,17.7,0,0,1,24.94-2.16,18.06,18.06,0,0,1,4.82,6.4,17.64,17.64,0,0,1-29.43,18.74,2.89,2.89,0,0,0-2.41-1.08c-4.16,0-8.31,0-12.43,0-.87,0-1.29.25-1.45,1.13a57.32,57.32,0,0,1-8.94,21.57,1.2,1.2,0,0,0,.21,1.87q4.6,4.49,9.14,9.1a2.06,2.06,0,0,0,1.92.67c12.92-1.25,22.82,12.3,17.7,24.23a17.62,17.62,0,0,1-33.92-7.85,2.45,2.45,0,0,0-.79-2.21c-3-3-6.07-6-9.06-9a1.14,1.14,0,0,0-1.79-.2,57.54,57.54,0,0,1-21.65,9c-.75.12-1.08.41-1.08,1.24,0,4.33,0,8.69,0,13A2,2,0,0,0,176,181a17.59,17.59,0,0,1,4.9,20.33,17.67,17.67,0,0,1-33-1.17,17.48,17.48,0,0,1,5.15-19,2.49,2.49,0,0,0,1-2.12c0-4.28,0-8.61,0-12.89,0-.95-.5-1.12-1.21-1.24a58.67,58.67,0,0,1-19.28-7.49c-.83-.5-1.67-1-2.5-1.58-.54-.37-.87-.41-1.37.09-3.2,3.24-6.44,6.44-9.64,9.72a1.88,1.88,0,0,0-.42,1.29c.83,11.85-9,21-20.74,19-6.49-1.12-11-5.07-13.39-11.22-3.53-8.94,1.17-19,10.52-22.7a15.74,15.74,0,0,1,7.44-1,2.17,2.17,0,0,0,1.91-.66q4.56-4.62,9.19-9.19a1.1,1.1,0,0,0,.17-1.7,57.33,57.33,0,0,1-9-21.66,1.21,1.21,0,0,0-1.42-1.16c-4.36,0-8.72,0-13.13.08a2.26,2.26,0,0,0-1.5.75A17.67,17.67,0,1,1,72.6,88.85c6.86-1.33,12.55.74,17.16,6a2.4,2.4,0,0,0,1.5.71c4.37,0,8.73,0,13.14,0a1.13,1.13,0,0,0,1.33-1.12,57.73,57.73,0,0,1,9.06-21.79c.46-.66.37-1-.17-1.53-3.16-3.12-6.27-6.28-9.48-9.4a2.21,2.21,0,0,0-1.49-.54A17.64,17.64,0,0,1,85,38.84,16.76,16.76,0,0,1,99.2,26.16c7.44-1.2,13.39,1.62,17.63,7.86a16.92,16.92,0,0,1,2.78,11.18,2.07,2.07,0,0,0,.5,1.37c3.16,3.24,6.4,6.4,9.56,9.64a.91.91,0,0,0,1.37.09,57.3,57.3,0,0,1,16.8-7.9c1.62-.46,3.28-.83,4.94-1.16.83-.17,1.21-.46,1.21-1.42,0-4.28,0-8.6,0-12.88a2.19,2.19,0,0,0-.83-1.83c-5.45-4.82-7.48-10.81-5.7-17.84S153.9,2,160.89.43a17.62,17.62,0,0,1,15.05,30.76,2.31,2.31,0,0,0-.71,1.5c-.08,4.32,0,8.68-.08,13,0,.95.29,1.33,1.2,1.49a57.76,57.76,0,0,1,21.57,8.94c.75.5,1.17.5,1.79-.16,3-3.12,6.11-6.16,9.19-9.23a2.09,2.09,0,0,0,.66-1.92c-1.16-12.17,11.1-22,22.78-18.29A17.67,17.67,0,0,1,225.78,61a2.09,2.09,0,0,0-1.92.66c-3,3.08-6.11,6.15-9.18,9.19a1.2,1.2,0,0,0-.17,1.83,57,57,0,0,1,8.9,21.45c.16,1,.49,1.33,1.53,1.24,2,0,4.16.09,6.28.09ZM198.51,77.16c.41-.41.66-.7,1-1,6.53-6.53,13.14-13,19.54-19.62,2-2.08,3.91-3.16,7-2.54,4.33.83,8.53-1.74,10.52-5.69a10.65,10.65,0,0,0-1.66-11.81,10.8,10.8,0,0,0-11.77-2.66c-5,2-7.48,6.69-6.36,12.18a4,4,0,0,1-1.24,4.07c-.67.63-1.29,1.29-1.91,1.92q-9.67,9.6-19.25,19.28c-.67.67-1,.71-1.7,0-1.09-1.2-2.25-2.32-3.45-3.45-.59-.54-.55-.91,0-1.45,1.24-1.17,2.36-2.41,3.61-3.58.71-.66.75-1-.12-1.58a52.55,52.55,0,0,0-21.08-7.64C169.2,53.26,168,52,168,49.48c0-6.19,0-12.39,0-18.54a4.71,4.71,0,0,1,2.36-4.49A10,10,0,0,0,174.94,16a10.47,10.47,0,0,0-8.4-8.73A10.59,10.59,0,0,0,154,15.56a10.7,10.7,0,0,0,4.74,11.1,3.87,3.87,0,0,1,2.12,3.45c0,6.48,0,13,0,19.45,0,2.58-1,3.7-3.58,4.08a53,53,0,0,0-21,7.65c-.83.49-1,.87-.21,1.58a49.14,49.14,0,0,1,3.66,3.7,1.39,1.39,0,0,1,.25,1.08c-1.41,1.53-2.95,3-4.49,4.57-.37-.38-.67-.58-.92-.87-6.77-6.78-13.5-13.6-20.36-20.29-1.71-1.7-2.46-3.33-2-5.78a10,10,0,0,0-5.78-11.05A10.87,10.87,0,0,0,93.84,36.8,10.57,10.57,0,0,0,104.23,54a4.27,4.27,0,0,1,4.28,1.33q10.55,10.61,21.12,21.12c.25.25.46.54.79.87-1.54,1.5-3,2.95-4.41,4.36-.5.5-.83.25-1.2-.12-1.21-1.21-2.41-2.41-3.58-3.62-1-1-1-1-1.7.21a52.56,52.56,0,0,0-7.61,21.12,3.47,3.47,0,0,1-3.78,3.36c-6.53.05-13,0-19.58.05a4,4,0,0,1-3.53-2,10.59,10.59,0,1,0-9.69,16.13,10.44,10.44,0,0,0,9.73-5.07,3.73,3.73,0,0,1,3.2-2h20.16a3.51,3.51,0,0,1,3.49,3.08c.12.87.25,1.78.42,2.7a52.31,52.31,0,0,0,7.44,19c.45.7.74.66,1.29.12,1.24-1.29,2.53-2.58,3.82-3.82.21-.21.87-.38,1-.25,1.58,1.45,3.07,3,4.74,4.65-.67.59-1.21,1-1.67,1.46L108.64,157c-1.25,1.24-2.58,1.91-4.37,1.37a4.82,4.82,0,0,0-1.12-.17,10.27,10.27,0,0,0-10.35,5.11,10.45,10.45,0,0,0,.58,11.64,10.8,10.8,0,0,0,11,4c5.91-1.41,9.19-6.73,7.86-12.88a3.64,3.64,0,0,1,.87-3.45q10.92-11,21.83-21.87c.45-.45.75-.5,1.2,0q1.88,1.93,3.74,3.74c.59.54.42.92-.08,1.42-1.2,1.16-2.37,2.32-3.53,3.49-1,1-1,1,.25,1.74a53,53,0,0,0,21.11,7.61,3.5,3.5,0,0,1,3.33,3.49c0,6.49,0,13,0,19.46a4.47,4.47,0,0,1-2.29,4.11,10.6,10.6,0,1,0,14.68,3,10,10,0,0,0-3.12-3.08,4.4,4.4,0,0,1-2.25-4.11c.09-2.25.05-4.45.05-6.7,0-4.24-.05-8.44,0-12.68a3.49,3.49,0,0,1,2.91-3.53c1.57-.29,3.11-.54,4.65-.83a52.27,52.27,0,0,0,17.17-7c.75-.46.71-.79.12-1.38-1.29-1.24-2.53-2.49-3.74-3.78-.21-.25-.37-.91-.21-1.08,1.42-1.54,2.91-3,4.49-4.57.42.41.71.66,1,1,6.57,6.48,13,13.09,19.66,19.53,2.08,2,3.08,3.91,2.54,7-1,5.57,3.41,10.8,9,11.39,6.15.62,11.39-3.41,12-9.23a10.53,10.53,0,0,0-12.85-11.47,4.42,4.42,0,0,1-4.36-1.33q-10.47-10.54-21-21c-.25-.25-.5-.54-.84-.91,1.54-1.54,3-3,4.54-4.49.16-.17.83,0,1.08.25,1.24,1.2,2.49,2.41,3.7,3.66.62.7,1,.66,1.49-.17A53.33,53.33,0,0,0,217,113.2c.38-2.45,1.58-3.57,4.08-3.57,6.23,0,12.43,0,18.66,0a4.6,4.6,0,0,1,4.41,2.37A10.58,10.58,0,1,0,247,97.28a10.89,10.89,0,0,0-3,3.12,4,4,0,0,1-3.57,2.12H221c-2.32,0-3.61-1.16-3.95-3.49a53.61,53.61,0,0,0-7.64-21.12c-.59-.91-1-.91-1.67-.16-1.16,1.24-2.41,2.41-3.57,3.61-.38.38-.75.67-1.25.17Z"/><path class="cls-1" d="M132.79,92A14.14,14.14,0,1,1,118.57,106v0A14.12,14.12,0,0,1,132.79,92ZM132.7,99a7.07,7.07,0,1,0,7.07,7.07v0a7.1,7.1,0,0,0-7.07-7Z"/><path class="cls-1" d="M210.44,106.26A14.14,14.14,0,1,1,196.64,92,14.14,14.14,0,0,1,210.44,106.26Zm-21.2-.08a7.07,7.07,0,1,0,7-7.11h0a7.11,7.11,0,0,0-7,7.11Z"/><path class="cls-1" d="M150.41,134.28a14.07,14.07,0,0,1,14.76-14c7.48.13,13.63,6.74,13.51,14.47a14.14,14.14,0,0,1-28.27-.46Zm21.16.12a7.07,7.07,0,1,0-7.07,7.07h0a7.06,7.06,0,0,0,7.07-7.07Z"/><path class="cls-1" d="M178.6,77.91a14,14,0,0,1-14.26,14c-7.94,0-14.05-6.4-14-14.63,0-7.23,6.61-13.63,14-13.59A14,14,0,0,1,178.6,77.91Zm-7-.08a7.07,7.07,0,1,0-7.07,7.07h.05A7.08,7.08,0,0,0,171.57,77.83Z"/></g><text class="cls-2" transform="translate(0 274.87)">pandemica</text><text class="cls-3" transform="translate(5.68 342.65)">se<tspan class="cls-4" x="38.44" y="0">c</tspan><tspan x="57.38" y="0">ond </tspan><tspan class="cls-5" x="137.93" y="0">w</tspan><tspan class="cls-6" x="169.3" y="0">a</tspan><tspan class="cls-7" x="189.61" y="0">v</tspan><tspan class="cls-8" x="209.79" y="0">e</tspan></text><path d="M301.22,317.13c-2.55,3.87-2.16,9.1,1,13.2,3.5,4.56,8.51,6.42,13.9,7.34,3,.51,6.09.58,9.14.87a2.94,2.94,0,0,1,3,3.22c0,1.83-1,3.08-2.84,3.11-8.74.13-17.15-1.14-24.37-6.6-7-5.29-9.8-14.31-6.83-21.95,1.51-3.89,3.94-6.9,8.47-7.33,2.44-.23,3.57.77,4,3.2s1.77,3.74,4,3.57,3.35-1.75,3.3-4.26a8.28,8.28,0,0,0-8-8.38c-8.57-.67-15.82,2.09-21.14,8.9-2.88,3.7-5.21,7.82-7.76,11.77-2.38,3.7-4.53,7.57-7.14,11.1-4.57,6.19-10.59,10-18.58,10-2.4,0-3.79-1.09-3.85-3.08s1.12-3.22,3.42-3.31c6.37-.23,11.08-3.36,14.51-8.45,2.87-4.26,5.42-8.75,8.08-13.16,3.41-5.65,7-11.14,12.56-15a29.11,29.11,0,0,1,22.33-5c7.84,1.32,13.37,9.27,11.92,16.84a9.81,9.81,0,0,1-7.78,8.29c-4.31,1-7.75-.51-10.47-3.87Z"/></g></g></g></svg>