<svg xmlns="http://www.w3.org/2000/svg" viewBox="0 0 81.81 49.12"><g id="Layer_2" data-name="Layer 2"><g id="Layer_1-2" data-name="Layer 1"><g id="Layer_2-2" data-name="Layer 2"><g id="Layer_1-2-2" data-name="Layer 1-2"><g id="Layer_2-2-2" data-name="Layer 2-2"><path d="M54.4,21c-2.58,3.92-2.19,9.22,1,13.37C59,39,64,40.87,69.49,41.81c3,.51,6.17.58,9.26.88a3,3,0,0,1,3.06,2.9c0,.12,0,.24,0,.36,0,1.85-1,3.12-2.87,3.15-8.86.13-17.38-1.15-24.69-6.69-7.09-5.35-9.93-14.49-6.92-22.23,1.53-3.94,4-7,8.58-7.43,2.47-.23,3.62.78,4,3.25s1.79,3.78,4.05,3.61,3.4-1.77,3.35-4.31a8.39,8.39,0,0,0-8.11-8.49c-8.68-.68-16,2.11-21.41,9C34.9,19.57,32.54,23.74,30,27.75c-2.41,3.74-4.59,7.66-7.24,11.24C18.09,45.26,12,49.12,3.9,49.12,1.47,49.12.06,48,0,46s1.14-3.26,3.47-3.35c6.45-.24,11.22-3.41,14.7-8.56,2.9-4.32,5.49-8.87,8.18-13.33C29.8,15,33.44,9.47,39.07,5.56A29.52,29.52,0,0,1,61.69.5c8,1.33,13.55,9.39,12.08,17.06A9.93,9.93,0,0,1,65.89,26C61.52,27,58,25.44,55.28,22Z"/></g></g></g></g></g></svg>