<svg width="47" height="47" viewBox="0 0 47 47" fill="none" xmlns="http://www.w3.org/2000/svg">
<path d="M23.5 0.0684814C10.5798 0.0684814 0.0683594 10.5799 0.0683594 23.5001C0.0683594 36.4204 10.5798 46.9318 23.5 46.9318C36.4203 46.9318 46.9316 36.4204 46.9316 23.5001C46.9316 10.5799 36.4203 0.0684814 23.5 0.0684814ZM34.2114 19.5064L20.0175 33.7003C19.9636 33.7542 19.8989 33.7963 19.8278 33.8237L9.80949 37.6768C9.74595 37.7012 9.67969 37.7131 9.61397 37.7131C9.47197 37.7131 9.33269 37.6576 9.2285 37.5534C9.07625 37.4013 9.02796 37.1736 9.10523 36.9725L12.9583 26.9543C12.9856 26.8831 13.0277 26.8185 13.0815 26.7646L27.2755 12.5706C27.3778 12.4684 27.5163 12.4111 27.6608 12.4111C27.8053 12.4111 27.9439 12.4685 28.0461 12.5706L34.2111 18.7358C34.4243 18.9485 34.4243 19.2935 34.2114 19.5064ZM39.015 14.7028L36.5234 17.1945C36.4212 17.2967 36.2827 17.3541 36.1382 17.3541C35.9936 17.3541 35.855 17.2966 35.7529 17.1945L29.5878 11.0295C29.4855 10.9272 29.4281 10.7887 29.4281 10.6441C29.4281 10.4995 29.4854 10.361 29.5878 10.2587L32.0795 7.76703C32.5459 7.30047 33.1665 7.04348 33.8262 7.04348C34.4861 7.04348 35.1063 7.30036 35.5729 7.76703L39.015 11.2092C39.4816 11.6758 39.7387 12.2962 39.7387 12.956C39.7387 13.6158 39.4817 14.2362 39.015 14.7028Z" fill="white"/>
<path d="M34.8028 8.53763C34.542 8.27683 34.1953 8.1333 33.8267 8.1333C33.458 8.1333 33.1113 8.27683 32.8505 8.53763L30.7441 10.6441L36.1387 16.0385L38.245 13.9321C38.5058 13.6713 38.6493 13.3248 38.6493 12.956C38.6493 12.5873 38.5058 12.2406 38.245 11.9798L34.8028 8.53763Z" fill="white"/>
<path d="M13.935 27.4535L10.5635 36.2195L19.3295 32.8479L33.0563 19.1211L27.6619 13.7267L13.935 27.4535Z" fill="white"/>
</svg>
