<?xml version="1.0" encoding="utf-8"?>
<!-- Generator: Adobe Illustrator 24.1.0, SVG Export Plug-In . SVG Version: 6.00 Build 0)  -->
<svg version="1.1" id="Layer_1" xmlns="http://www.w3.org/2000/svg" xmlns:xlink="http://www.w3.org/1999/xlink" x="0px" y="0px"
	 viewBox="0 0 47 47" style="enable-background:new 0 0 47 47;" xml:space="preserve">
<path d="M23.5,0.1C10.6,0.1,0.1,10.6,0.1,23.5c0,12.9,10.5,23.4,23.4,23.4c12.9,0,23.4-10.5,23.4-23.4C46.9,10.6,36.4,0.1,23.5,0.1z
	 M34.2,19.5L20,33.7c-0.1,0.1-0.1,0.1-0.2,0.1l-10,3.9c-0.1,0-0.1,0-0.2,0c-0.1,0-0.3-0.1-0.4-0.2C9.1,37.4,9,37.2,9.1,37L13,27
	c0-0.1,0.1-0.1,0.1-0.2l14.2-14.2c0.1-0.1,0.2-0.2,0.4-0.2c0.1,0,0.3,0.1,0.4,0.2l6.2,6.2C34.4,18.9,34.4,19.3,34.2,19.5z M39,14.7
	l-2.5,2.5c-0.1,0.1-0.2,0.2-0.4,0.2c-0.1,0-0.3-0.1-0.4-0.2L29.6,11c-0.1-0.1-0.2-0.2-0.2-0.4s0.1-0.3,0.2-0.4l2.5-2.5
	C32.5,7.3,33.2,7,33.8,7c0.7,0,1.3,0.3,1.7,0.7l3.4,3.4c0.5,0.5,0.7,1.1,0.7,1.7C39.7,13.6,39.5,14.2,39,14.7z"/>
<path d="M34.8,8.5c-0.3-0.3-0.6-0.4-1-0.4c-0.4,0-0.7,0.1-1,0.4l-2.1,2.1l5.4,5.4l2.1-2.1c0.3-0.3,0.4-0.6,0.4-1
	c0-0.4-0.1-0.7-0.4-1L34.8,8.5z"/>
<path d="M13.9,27.5l-3.4,8.8l8.8-3.4l13.7-13.7l-5.4-5.4L13.9,27.5z"/>
</svg>
