<svg xmlns="http://www.w3.org/2000/svg" viewBox="0 0 545.01 545.01"><defs><style>.cls-1{fill:#fff;}</style></defs><g id="Layer_2" data-name="Layer 2"><g id="Layer_1-2" data-name="Layer 1"><path class="cls-1" d="M545,545H0V0H545ZM432.72,246.7h0c-5.08,0-10.17-.18-15.23.08-2.52.13-3.3-.79-3.74-3a138.66,138.66,0,0,0-21.43-51.63c-1.19-1.78-1.17-2.85.38-4.37q11.18-11,22.14-22.13a5.09,5.09,0,0,1,4.59-1.58,42.5,42.5,0,0,0,15.79-83c-28.11-9-57.65,14.64-54.83,44a5.1,5.1,0,0,1-1.57,4.6q-11.15,11-22.1,22.16c-1.52,1.55-2.53,1.59-4.32.38a138.27,138.27,0,0,0-51.89-21.49c-2.23-.42-2.94-1.38-2.91-3.64.15-10.43.07-20.86.24-31.29a5.51,5.51,0,0,1,1.7-3.62c15.11-13,19.51-33.68,10.85-51.39a42.11,42.11,0,0,0-47.07-22.64c-16.8,3.74-27.88,14.28-32.16,30.89-4.35,16.87.6,31.35,13.67,42.92a5.23,5.23,0,0,1,2,4.41c-.11,10.34-.18,20.68-.09,31,0,2.24-.89,3-2.89,3.38-4,.81-8,1.7-11.9,2.83a139.74,139.74,0,0,0-40.44,19c-1.29.88-2.14.92-3.26-.22-7.67-7.74-15.41-15.39-23-23.17a4.79,4.79,0,0,1-1.18-3.34c.81-9.75-1.22-18.8-6.72-26.91C147.16,83.85,132.88,77,115,79.94c-17.5,2.83-29.28,13.43-34.11,30.47-8.16,28.74,14.86,56,44.75,53.7a5.13,5.13,0,0,1,3.56,1.27c7.67,7.48,15.19,15.1,22.81,22.62,1.25,1.23,1.46,2.11.4,3.68A139.22,139.22,0,0,0,130.61,244c-.36,1.92-1.16,2.72-3.24,2.71-10.52-.06-21.05.08-31.57,0a5.55,5.55,0,0,1-3.64-1.7c-11.1-12.53-24.82-17.59-41.29-14.36-25.17,4.94-40.26,31.93-31.41,55.88a42.56,42.56,0,0,0,72.61,13.06,5.46,5.46,0,0,1,3.59-1.78c10.52-.17,21-.1,31.57-.23,2.16,0,3,.74,3.42,2.81a138.8,138.8,0,0,0,21.63,52.14c1.19,1.77,1,2.71-.44,4.1q-11.16,11-22.14,22.14a5.08,5.08,0,0,1-4.57,1.65,38.14,38.14,0,0,0-17.9,2.41C84.73,391.68,73.46,416,82,437.46c5.85,14.83,16.65,24.32,32.25,27,28.18,4.9,51.91-17.22,49.88-45.75a4.52,4.52,0,0,1,1-3.14c7.68-7.85,15.47-15.58,23.19-23.38,1.14-1.15,2-1.11,3.29-.2,1.91,1.38,3.93,2.6,6,3.82a139.82,139.82,0,0,0,46.4,18c1.74.34,3,.77,2.93,3q-.21,15.51-.1,31A5.92,5.92,0,0,1,244.4,453c-13.14,11.15-17.91,28.93-12.44,45.74,5,15.44,20,27.19,36.47,28.61,18.35,1.59,36.06-9.05,43-25.83a42.23,42.23,0,0,0-11.77-48.91,5.19,5.19,0,0,1-2-4.42c.08-10.44.14-20.87.09-31.3,0-2,.85-2.7,2.62-3a138.93,138.93,0,0,0,52.14-21.61c1.88-1.27,2.87-.93,4.31.54q10.77,11,21.75,21.74a5.88,5.88,0,0,1,1.87,5.28c-1.84,21,14.06,41.47,34.73,44.8,20.3,3.28,38.76-6.93,46.9-25.91,12.27-28.63-11.57-61.26-42.64-58.28a5.07,5.07,0,0,1-4.56-1.64c-7.27-7.36-14.57-14.69-22-21.91-1.61-1.56-1.81-2.58-.51-4.52a138.25,138.25,0,0,0,21.49-51.9c.4-2.14,1.44-2.72,3.52-2.71q15,.09,29.93-.1a6.76,6.76,0,0,1,5.83,2.58,42.19,42.19,0,0,0,54.57,8C525.37,297,532.37,274,523.89,255.1a42.55,42.55,0,0,0-71.51-10.23,5.56,5.56,0,0,1-3.6,1.75C443.43,246.81,438.08,246.7,432.72,246.7Z"/><path d="M432.72,246.7c5.36,0,10.71.11,16.06-.08a5.56,5.56,0,0,0,3.6-1.75,42.55,42.55,0,0,1,71.51,10.23c8.48,18.93,1.48,41.88-16.2,53.07a42.19,42.19,0,0,1-54.57-8,6.76,6.76,0,0,0-5.83-2.58q-15,.17-29.93.1c-2.08,0-3.12.57-3.52,2.71a138.25,138.25,0,0,1-21.49,51.9c-1.3,1.94-1.1,3,.51,4.52,7.41,7.22,14.71,14.55,22,21.91a5.07,5.07,0,0,0,4.56,1.64c31.07-3,54.91,29.65,42.64,58.28-8.14,19-26.6,29.19-46.9,25.91-20.67-3.33-36.57-23.77-34.73-44.8a5.88,5.88,0,0,0-1.87-5.28q-11-10.75-21.75-21.74c-1.44-1.47-2.43-1.81-4.31-.54a138.93,138.93,0,0,1-52.14,21.61c-1.77.33-2.63,1-2.62,3,0,10.43,0,20.86-.09,31.3a5.19,5.19,0,0,0,2,4.42,42.23,42.23,0,0,1,11.77,48.91c-6.95,16.78-24.66,27.42-43,25.83C252,525.91,237,514.16,232,498.72c-5.47-16.81-.7-34.59,12.44-45.74a5.92,5.92,0,0,0,2.35-5.08q-.1-15.51.1-31c0-2.27-1.19-2.7-2.93-3a139.82,139.82,0,0,1-46.4-18c-2-1.22-4-2.44-6-3.82-1.26-.91-2.15-.95-3.29.2-7.72,7.8-15.51,15.53-23.19,23.38a4.52,4.52,0,0,0-1,3.14c2,28.53-21.7,50.65-49.88,45.75-15.6-2.72-26.4-12.21-32.25-27-8.49-21.48,2.78-45.78,25.28-54.6a38.14,38.14,0,0,1,17.9-2.41,5.08,5.08,0,0,0,4.57-1.65q11-11.16,22.14-22.14c1.41-1.39,1.63-2.33.44-4.1a138.8,138.8,0,0,1-21.63-52.14c-.39-2.07-1.26-2.84-3.42-2.81-10.53.13-21,.06-31.57.23a5.46,5.46,0,0,0-3.59,1.78,42.56,42.56,0,0,1-72.61-13.06c-8.85-23.95,6.24-50.94,31.41-55.88,16.47-3.23,30.19,1.83,41.29,14.36a5.55,5.55,0,0,0,3.64,1.7c10.52.09,21-.05,31.57,0,2.08,0,2.88-.79,3.24-2.71a139.22,139.22,0,0,1,21.78-52.36c1.06-1.57.85-2.45-.4-3.68-7.62-7.52-15.14-15.14-22.81-22.62a5.13,5.13,0,0,0-3.56-1.27c-29.89,2.3-52.91-25-44.75-53.7,4.83-17,16.61-27.64,34.11-30.47,17.9-2.9,32.18,3.91,42.36,18.92,5.5,8.11,7.53,17.16,6.72,26.91a4.79,4.79,0,0,0,1.18,3.34c7.62,7.78,15.36,15.43,23,23.17,1.12,1.14,2,1.1,3.26.22a139.74,139.74,0,0,1,40.44-19c3.92-1.13,7.9-2,11.9-2.83,2-.41,2.9-1.14,2.89-3.38-.09-10.34,0-20.68.09-31a5.23,5.23,0,0,0-2-4.41c-13.07-11.57-18-26-13.67-42.92,4.28-16.61,15.36-27.15,32.16-30.89a42.11,42.11,0,0,1,47.07,22.64c8.66,17.71,4.26,38.34-10.85,51.39a5.51,5.51,0,0,0-1.7,3.62c-.17,10.43-.09,20.86-.24,31.29,0,2.26.68,3.22,2.91,3.64a138.27,138.27,0,0,1,51.89,21.49c1.79,1.21,2.8,1.17,4.32-.38q10.93-11.19,22.1-22.16a5.1,5.1,0,0,0,1.57-4.6c-2.82-29.33,26.72-53,54.83-44a42.5,42.5,0,0,1-15.79,83,5.09,5.09,0,0,0-4.59,1.58q-11,11.16-22.14,22.13c-1.55,1.52-1.57,2.59-.38,4.37a138.66,138.66,0,0,1,21.43,51.63c.44,2.26,1.22,3.18,3.74,3,5.06-.26,10.15-.08,15.23-.08ZM354,202.64c1-1,1.63-1.74,2.32-2.43C372,184.49,387.88,168.92,403.36,153c4.87-5,9.4-7.59,16.86-6.15,10.35,2,20.47-4.17,25.29-13.7a25.53,25.53,0,0,0-4-28.4,26,26,0,0,0-28.27-6.4c-12.05,4.87-18,16.14-15.29,29.35.83,4-.07,7.12-3,9.83-1.6,1.48-3.09,3.07-4.63,4.61Q367.12,165.3,344,188.54c-1.6,1.61-2.55,1.68-4.09,0-2.62-2.89-5.42-5.62-8.26-8.3-1.41-1.33-1.31-2.25.05-3.54,3-2.8,5.72-5.83,8.72-8.6,1.72-1.59,1.82-2.44-.33-3.79a128.42,128.42,0,0,0-50.74-18.45c-5.84-.84-8.56-3.85-8.56-9.85,0-14.88.12-29.76-.08-44.63-.06-4.87,1.65-8.08,5.71-10.84,8.82-6,12.68-14.63,11-25.18-1.72-10.87-9.6-18.71-20.2-21A25.53,25.53,0,0,0,258.58,81c3.13,2,5.16,4.46,5.14,8.34-.05,15.61,0,31.22-.11,46.83,0,6.21-2.54,8.88-8.6,9.76a128.6,128.6,0,0,0-50.49,18.35c-2,1.25-2.35,2.08-.5,3.79,3.06,2.83,6,5.81,8.84,8.86.54.59.93,2.22.57,2.61-3.44,3.7-7.05,7.24-10.76,11-.92-.85-1.59-1.43-2.21-2.06-16.3-16.29-32.5-32.69-49-48.82-4.14-4.05-5.9-8-4.72-13.94,2.22-11.3-3.69-21.86-13.9-26.62a26,26,0,0,0-30.36,6.22,25.46,25.46,0,0,0-2.74,29.22c5.56,9.68,16.2,14.46,27.71,12.08,4.22-.87,7.32.24,10.27,3.21q25.34,25.49,50.79,50.84c.61.62,1.15,1.3,1.87,2.13-3.69,3.65-7.18,7.08-10.63,10.54-1.18,1.19-2,.64-2.95-.33-2.85-2.92-5.76-5.79-8.64-8.68-2.27-2.27-2.33-2.26-4.06.5a127.79,127.79,0,0,0-18.34,50.78c-.75,5.35-3.72,8-9.12,8.07-15.7.07-31.39.05-47.09.13-3.85,0-6.46-1.75-8.47-4.91-6.2-9.74-16.79-13.95-28-11.29-12.2,2.89-20.28,14.68-19,27.74,1.14,11.79,11.78,21.93,23.68,22.43,10.1.43,17.92-3.71,23.41-12.18,1.85-2.84,4.2-4.77,7.73-4.77,16.15,0,32.3,0,48.45,0a8.37,8.37,0,0,1,8.39,7.41c.32,2.15.62,4.31,1,6.45a126.84,126.84,0,0,0,17.85,45.83c1.06,1.66,1.82,1.62,3.1.29,3-3.14,6.08-6.23,9.24-9.23.54-.52,2.07-.92,2.41-.6,3.75,3.51,7.35,7.17,11.45,11.24-1.57,1.35-2.88,2.33-4,3.47q-24.47,24.42-48.88,48.91c-3,3-6.23,4.57-10.49,3.28a14.09,14.09,0,0,0-2.69-.41c-10.79-1-19.2,3.08-24.87,12.27a25.22,25.22,0,0,0,1.37,28,25.94,25.94,0,0,0,26.37,9.61c14.24-3.42,22.09-16.24,18.86-31a8.46,8.46,0,0,1,2.14-8.29q26.22-26.33,52.5-52.6c1.06-1.07,1.81-1.18,2.9-.05,3,3.07,6,6.11,9,9.05,1.37,1.32,1,2.21-.19,3.35-2.88,2.77-5.66,5.63-8.49,8.44-2.39,2.39-2.39,2.38.55,4.23a127.31,127.31,0,0,0,50.79,18.26c4.83.67,8,3.8,8,8.42.06,15.6-.06,31.21.05,46.81,0,4.46-1.71,7.42-5.46,9.85a25.48,25.48,0,1,0,27.81-.08c-3.73-2.42-5.55-5.4-5.38-9.88.2-5.35.07-10.71.07-16.06,0-10.16-.06-20.32,0-30.48a8.46,8.46,0,0,1,7-8.47c3.75-.67,7.51-1.27,11.24-2a123.76,123.76,0,0,0,41.32-16.83c1.83-1.15,1.66-1.94.27-3.27-3.08-3-6.11-6-9-9.08-.54-.57-.91-2.21-.54-2.6,3.43-3.7,7-7.24,10.75-11,1,.95,1.72,1.61,2.41,2.3C360,372,375.55,387.9,391.5,403.38c5,4.88,7.42,9.42,6.11,16.87-2.35,13.42,8.19,26,21.59,27.43,14.79,1.53,27.41-8.17,28.82-22.18,1.77-17.53-13.2-31.06-30.85-27.62a10.6,10.6,0,0,1-10.52-3.23q-25.25-25.39-50.6-50.65c-.63-.62-1.19-1.3-2-2.17,3.72-3.72,7.25-7.34,10.94-10.79.38-.35,2,.06,2.61.61,3.05,2.85,6,5.78,8.87,8.83,1.55,1.67,2.37,1.61,3.62-.37a128.28,128.28,0,0,0,18.49-50.72c.85-5.9,3.84-8.63,9.79-8.64,15,0,29.94.11,44.91-.07,4.77-.06,8,1.62,10.57,5.66a25.41,25.41,0,1,0-.33-27.77c-2.1,3.23-4.64,5.1-8.64,5.09-15.6,0-31.2,0-46.81,0-5.61,0-8.67-2.8-9.46-8.38a129,129,0,0,0-18.37-50.77c-1.39-2.22-2.28-2.23-4-.38-2.75,3-5.75,5.79-8.61,8.71-.93.94-1.75,1.58-3,.37C361.25,209.8,357.76,206.38,354,202.64Z"/><path class="cls-1" d="M354,202.64c3.79,3.74,7.28,7.16,10.74,10.62,1.2,1.21,2,.57,3-.37,2.86-2.92,5.86-5.7,8.61-8.71,1.7-1.85,2.59-1.84,4,.38a129,129,0,0,1,18.37,50.77c.79,5.58,3.85,8.38,9.46,8.38,15.61,0,31.21-.09,46.81,0,4,0,6.54-1.86,8.64-5.09a25.47,25.47,0,1,1,.33,27.77c-2.61-4-5.8-5.72-10.57-5.66-15,.18-29.94.06-44.91.07-5.95,0-8.94,2.74-9.79,8.64a128.28,128.28,0,0,1-18.49,50.72c-1.25,2-2.07,2-3.62.37-2.84-3.05-5.82-6-8.87-8.83-.59-.55-2.23-1-2.61-.61-3.69,3.45-7.22,7.07-10.94,10.79.8.87,1.36,1.55,2,2.17q25.31,25.32,50.6,50.65a10.6,10.6,0,0,0,10.52,3.23C434.82,394.44,449.79,408,448,425.5c-1.41,14-14,23.71-28.82,22.18-13.4-1.4-23.94-14-21.59-27.43,1.31-7.45-1.09-12-6.11-16.87C375.55,387.9,360,372,344.25,356.31c-.69-.69-1.41-1.35-2.41-2.3-3.71,3.73-7.32,7.27-10.75,11-.37.39,0,2,.54,2.6,2.9,3.12,5.93,6.13,9,9.08,1.39,1.33,1.56,2.12-.27,3.27a123.76,123.76,0,0,1-41.32,16.83c-3.73.75-7.49,1.35-11.24,2a8.46,8.46,0,0,0-7,8.47c-.06,10.16,0,20.32,0,30.48,0,5.35.13,10.71-.07,16.06-.17,4.48,1.65,7.46,5.38,9.88a25.49,25.49,0,1,1-27.81.08c3.75-2.43,5.49-5.39,5.46-9.85-.11-15.6,0-31.21-.05-46.81,0-4.62-3.17-7.75-8-8.42a127.31,127.31,0,0,1-50.79-18.26c-2.94-1.85-2.94-1.84-.55-4.23,2.83-2.81,5.61-5.67,8.49-8.44,1.2-1.14,1.56-2,.19-3.35-3.08-2.94-6.08-6-9-9.05-1.09-1.13-1.84-1-2.9.05q-26.24,26.31-52.5,52.6a8.46,8.46,0,0,0-2.14,8.29c3.23,14.74-4.62,27.56-18.86,31a25.94,25.94,0,0,1-26.37-9.61,25.22,25.22,0,0,1-1.37-28c5.67-9.19,14.08-13.27,24.87-12.27a14.09,14.09,0,0,1,2.69.41c4.26,1.29,7.48-.24,10.49-3.28q24.36-24.54,48.88-48.91c1.15-1.14,2.46-2.12,4-3.47-4.1-4.07-7.7-7.73-11.45-11.24-.34-.32-1.87.08-2.41.6-3.16,3-6.23,6.09-9.24,9.23-1.28,1.33-2,1.37-3.1-.29a126.84,126.84,0,0,1-17.85-45.83c-.39-2.14-.69-4.3-1-6.45a8.37,8.37,0,0,0-8.39-7.41c-16.15-.06-32.3,0-48.45,0-3.53,0-5.88,1.93-7.73,4.77-5.49,8.47-13.31,12.61-23.41,12.18-11.9-.5-22.54-10.64-23.68-22.43-1.27-13.06,6.81-24.85,19-27.74,11.24-2.66,21.83,1.55,28,11.29,2,3.16,4.62,4.93,8.47,4.91,15.7-.08,31.39-.06,47.09-.13,5.4,0,8.37-2.72,9.12-8.07a127.79,127.79,0,0,1,18.34-50.78c1.73-2.76,1.79-2.77,4.06-.5,2.88,2.89,5.79,5.76,8.64,8.68.94,1,1.77,1.52,2.95.33,3.45-3.46,6.94-6.89,10.63-10.54-.72-.83-1.26-1.51-1.87-2.13q-25.4-25.41-50.79-50.84c-2.95-3-6-4.08-10.27-3.21-11.51,2.38-22.15-2.4-27.71-12.08a25.46,25.46,0,0,1,2.74-29.22A26,26,0,0,1,132.88,99c10.21,4.76,16.12,15.32,13.9,26.62-1.18,6,.58,9.89,4.72,13.94,16.46,16.13,32.66,32.53,49,48.82.62.63,1.29,1.21,2.21,2.06,3.71-3.73,7.32-7.27,10.76-11,.36-.39,0-2-.57-2.61-2.85-3-5.78-6-8.84-8.86-1.85-1.71-1.49-2.54.5-3.79A128.6,128.6,0,0,1,255,145.89c6.06-.88,8.57-3.55,8.6-9.76.09-15.61.06-31.22.11-46.83,0-3.88-2-6.33-5.14-8.34a25.53,25.53,0,0,1,18.61-46.6c10.6,2.29,18.48,10.13,20.2,21,1.67,10.55-2.19,19.19-11,25.18-4.06,2.76-5.77,6-5.71,10.84.2,14.87.07,29.75.08,44.63,0,6,2.72,9,8.56,9.85a128.42,128.42,0,0,1,50.74,18.45c2.15,1.35,2.05,2.2.33,3.79-3,2.77-5.76,5.8-8.72,8.6-1.36,1.29-1.46,2.21-.05,3.54,2.84,2.68,5.64,5.41,8.26,8.3,1.54,1.68,2.49,1.61,4.09,0q23.1-23.29,46.35-46.43c1.54-1.54,3-3.13,4.63-4.61,2.92-2.71,3.82-5.83,3-9.83-2.74-13.21,3.24-24.48,15.29-29.35a26,26,0,0,1,28.27,6.4,25.53,25.53,0,0,1,4,28.4c-4.82,9.53-14.94,15.69-25.29,13.7-7.46-1.44-12,1.14-16.86,6.15-15.48,15.95-31.35,31.52-47.07,47.24C355.6,200.9,354.94,201.62,354,202.64ZM195.86,238.21a34,34,0,1,0,33.84,34.35A34,34,0,0,0,195.86,238.21Zm186.88,34.36a33.9,33.9,0,0,0-33.19-34.36c-18.9-.25-34.48,14.63-34.79,33.14a34,34,0,1,0,68,1.22ZM238.31,340a33.84,33.84,0,0,0,32.93,34.31c19,.37,34.71-14.49,35-33.17s-14.45-34.5-32.49-34.84C253.9,305.92,238.67,320.39,238.31,340Zm67.84-135.57c.07-19.27-14.9-34.2-34.36-34.27-17.71-.06-33.41,15.24-33.56,32.69-.16,19.83,14.45,35.15,33.63,35.25S306.09,223.37,306.15,204.42Z"/><path d="M195.86,238.21a34,34,0,1,1-34.21,33.7A34,34,0,0,1,195.86,238.21Zm-.19,17a17,17,0,1,0,17,16.94A17,17,0,0,0,195.67,255.23Z"/><path d="M382.74,272.57a34,34,0,1,1-68-1.22c.31-18.51,15.89-33.39,34.79-33.14A33.9,33.9,0,0,1,382.74,272.57Zm-51-.21a17,17,0,1,0,16.83-17.13A17.16,17.16,0,0,0,331.78,272.36Z"/><path d="M238.31,340c.36-19.6,15.59-34.07,35.45-33.7,18,.34,32.79,16.16,32.49,34.84s-16,33.54-35,33.17A33.84,33.84,0,0,1,238.31,340Zm50.92.32a17,17,0,1,0-17,17A17.1,17.1,0,0,0,289.23,340.31Z"/><path d="M306.15,204.42c-.06,19-15.17,33.77-34.29,33.67s-33.79-15.42-33.63-35.25c.15-17.45,15.85-32.75,33.56-32.69C291.25,170.22,306.22,185.15,306.15,204.42Zm-16.91-.26a17,17,0,1,0-16.92,17A17,17,0,0,0,289.24,204.16Z"/><path class="cls-1" d="M195.67,255.23a17,17,0,1,1-17,16.93A17,17,0,0,1,195.67,255.23Z"/><path class="cls-1" d="M331.78,272.36a17,17,0,1,1,34.08-.12,17,17,0,0,1-34.08.12Z"/><path class="cls-1" d="M289.23,340.31a17,17,0,0,1-34.07.1,17,17,0,1,1,34.07-.1Z"/><path class="cls-1" d="M289.24,204.16a17,17,0,1,1-17-17A17,17,0,0,1,289.24,204.16Z"/></g></g></svg>