<svg xmlns="http://www.w3.org/2000/svg" viewBox="0 0 62.96 88.86"><g id="Layer_2" data-name="Layer 2"><g id="Layer_1-2" data-name="Layer 1"><path d="M62.49,36.15c-.61-4.08-1.53-6.39-3.87-8a15.38,15.38,0,0,0-4.35-1.88c-4.07-1.2-9.12-4-12.17.22-2.85,3.91-4.76,8.94-6.42,13.44-5.25,14.28-7,31.06-5.87,46.24.55-5,1.29-10,2-15,1.4-9.21,2.87-18.77,5.73-27.66,1-3,5-14.2,8.76-11.63a7,7,0,0,1,2.16,3.27C52.85,46,53.93,61,56.39,62.66c1,.69,2.23-.85,4-5.79A42,42,0,0,0,62.49,36.15Z"/><path d="M38,86.49S48.28,71,50.78,52.71c-.65-2.9-1.41-6-2.33-8.9C49.14,56.45,44.21,69.44,38,86.49Z"/><path d="M15.34,88.86S-5.32,51,1.31,17.29s7-11.61,16.79,11.47,8.5,34.06,5.37,57.44c0,0-.81-40.43-9.06-51.88S8.25,10.3,6.06,18,3.54,42.4,15.34,88.86Z"/></g></g></svg>