<svg width="35" height="35" viewBox="0 0 35 35" fill="none" xmlns="http://www.w3.org/2000/svg">
<path d="M21.2696 11.6667L17.4998 15.4365L13.73 11.6667L11.6665 13.7303L15.4363 17.5001L11.6665 21.2699L13.73 23.3334L17.4998 19.5636L21.2696 23.3334L23.3332 21.2699L19.5634 17.5001L23.3332 13.7303L21.2696 11.6667ZM17.4998 2.91675C9.44255 2.91675 2.9165 9.44279 2.9165 17.5001C2.9165 25.5574 9.44255 32.0834 17.4998 32.0834C25.5571 32.0834 32.0832 25.5574 32.0832 17.5001C32.0832 9.44279 25.5571 2.91675 17.4998 2.91675ZM17.4998 29.1668C11.0686 29.1668 5.83317 23.9313 5.83317 17.5001C5.83317 11.0688 11.0686 5.83342 17.4998 5.83342C23.9311 5.83342 29.1665 11.0688 29.1665 17.5001C29.1665 23.9313 23.9311 29.1668 17.4998 29.1668Z" fill="white"/>
</svg>
