<?xml version="1.0" encoding="utf-8"?>
<!-- Generator: Adobe Illustrator 24.1.0, SVG Export Plug-In . SVG Version: 6.00 Build 0)  -->
<svg version="1.1" id="Layer_1" xmlns="http://www.w3.org/2000/svg" xmlns:xlink="http://www.w3.org/1999/xlink" x="0px" y="0px"
	 viewBox="0 0 35 35" style="enable-background:new 0 0 35 35;" xml:space="preserve">
<path d="M21.3,11.7l-3.8,3.8l-3.8-3.8l-2.1,2.1l3.8,3.8l-3.8,3.8l2.1,2.1l3.8-3.8l3.8,3.8l2.1-2.1l-3.8-3.8l3.8-3.8L21.3,11.7z
	 M17.5,2.9C9.4,2.9,2.9,9.4,2.9,17.5c0,8.1,6.5,14.6,14.6,14.6c8.1,0,14.6-6.5,14.6-14.6C32.1,9.4,25.6,2.9,17.5,2.9z M17.5,29.2
	c-6.4,0-11.7-5.2-11.7-11.7c0-6.4,5.2-11.7,11.7-11.7c6.4,0,11.7,5.2,11.7,11.7C29.2,23.9,23.9,29.2,17.5,29.2z"/>
</svg>
